<svg width="304" height="316" viewBox="0 0 304 316" fill="none" xmlns="http://www.w3.org/2000/svg">
<g clip-path="url(#clip0_25_206)">
<path d="M241.968 148.052C257.371 99.6139 272.775 51.2104 288.999 0.171036C307.757 6.43542 325.146 12.2206 344.143 18.5534C325.728 55.7289 309.777 91.501 290.677 125.459C269.591 162.874 214.516 162.908 190.316 127.033C187.475 122.823 185.216 118.202 182.956 113.615C167.793 82.6692 152.663 51.6554 136.507 18.5534C155.059 12.2548 172.003 6.50388 191.172 -0.00012207C207.294 50.5942 222.868 99.4769 238.442 148.36C239.606 148.257 240.77 148.154 241.934 148.052H241.968Z" fill="white" fill-opacity="0.08"/>
<path d="M344.143 452.063C324.701 458.395 307.689 463.941 289.034 470C272.775 419.132 257.2 370.352 240.12 316.779C223.074 370.317 207.636 418.721 191.343 469.966C173.167 464.044 155.813 458.361 136.096 451.926C155.094 413.963 170.805 376.787 191.48 342.624C214.242 305.004 271.029 308.358 292.114 347.28C310.188 380.655 325.967 415.229 344.143 452.028V452.063Z" fill="white" fill-opacity="0.08"/>
<path d="M170.497 195.634C150.61 221.239 124.732 227.537 93.2754 223.087C63.5642 218.911 33.3054 218.706 0.273926 216.549C4.10763 197.242 7.66749 179.339 11.6039 159.485C65.8576 171.843 118.194 183.721 170.531 195.634H170.497Z" fill="white" fill-opacity="0.08"/>
<path d="M170.531 274.777C118.537 286.621 66.5421 298.431 11.9803 310.857C8.0097 292.132 4.21023 274.195 0 254.272C19.9558 252.663 37.8578 251.157 55.7598 249.788C73.9357 248.419 92.1115 247.494 110.253 245.92C136.096 243.729 154.82 255.984 170.497 274.811L170.531 274.777Z" fill="white" fill-opacity="0.08"/>
<path d="M312.378 194.23C300.124 177.457 298.105 158.39 308.271 141.376C329.151 106.426 352.427 72.9475 375.977 36.97C391.38 50.4915 404.935 62.3699 419.585 75.1725C383.096 115.737 347.532 155.206 311.967 194.709L312.412 194.23H312.378Z" fill="white" fill-opacity="0.08"/>
<path d="M309.845 274.264C345.889 313.87 381.933 353.475 419.585 394.861C405.414 407.424 391.654 419.645 376.113 433.406C352.632 397.737 329.869 364.464 308.545 330.335C297.18 312.124 303.547 292.886 310.153 274.366C310.085 274.332 309.845 274.264 309.845 274.264Z" fill="white" fill-opacity="0.08"/>
<path d="M170.531 274.811C182.82 303.942 176.35 329.411 157.661 354.16C139.211 378.567 123.089 404.686 104.195 432.619C89.6129 420.159 75.6815 408.28 60.3467 395.17C97.9991 354.057 134.282 314.417 170.6 274.811H170.531Z" fill="white" fill-opacity="0.08"/>
<path d="M170.497 195.634C134.453 156.267 98.4439 116.901 60.6545 75.6175C75.0309 62.8833 88.7227 50.7311 104.194 37.0042C127.676 72.5367 150.541 105.57 171.592 139.699C182.614 157.568 176.932 177.08 170.497 195.634Z" fill="white" fill-opacity="0.08"/>
</g>
<defs>
<clipPath id="clip0_25_206">
<rect width="480" height="470" fill="white"/>
</clipPath>
</defs>
</svg>
