<svg width="453" height="342" viewBox="0 0 453 342" fill="none" xmlns="http://www.w3.org/2000/svg">
<g opacity="0.23" clip-path="url(#clip0_2_2867)">
<path d="M129.01 280.623C127.84 292.846 126.321 305.052 125.622 317.292C125.063 327.175 125.517 327.21 115.492 331.855C114.444 328.974 112.855 326.25 112.54 323.386C112.051 318.776 112.61 314.079 112.383 309.434C111.3 287.014 110.13 264.611 108.907 242.208C108.401 232.866 107.685 223.524 107.004 213.257C99.4933 216.557 98.9868 222.529 98.4977 228.239C97.1703 243.902 95.4238 259.355 90.9176 274.599C88.5073 282.771 85.608 291.746 89.5727 300.756C90.2714 302.363 89.8871 305.785 88.7169 306.641C80.1762 312.892 71.0241 317.938 59.0601 319.125C63.6536 312.246 67.2864 306.309 71.4433 300.739C74.5871 296.53 78.7789 297.945 82.7262 299.813" stroke="#4C4AC7" stroke-opacity="0.22" stroke-width="2" stroke-linecap="round" stroke-linejoin="round"/>
<path d="M134.25 115.612C133.377 119.978 132.521 124.343 131.63 128.708C130.495 134.244 128.347 139.761 128.294 145.297C127.98 179.643 128.137 213.973 128.137 248.319C128.137 256.474 127.648 264.663 128.329 272.748C128.731 277.497 130.949 282.107 132.626 287.66C141.568 276.764 145.166 264.157 149.044 251.794C153.393 237.912 156.764 223.699 161.549 209.974C164.012 202.92 168.623 196.616 172.256 189.981C173.059 190.05 173.863 190.138 174.666 190.208C181.862 206.813 189.058 223.402 197.127 242.068C189.914 264.157 197.127 284.971 213.143 303.759C215.221 302.851 216.828 302.432 218.051 301.524C219.675 300.302 221.003 298.678 223.029 296.653C209.72 278.894 212.182 260.56 222.452 242.225" stroke="#4C4AC7" stroke-opacity="0.22" stroke-width="2" stroke-linecap="round" stroke-linejoin="round"/>
<path d="M188.394 157.52C177.128 162.077 165.845 166.355 153.218 160.768C151.122 170.843 149.725 180.028 147.227 188.915C143.28 203.007 138.372 216.819 134.337 230.893C132.556 237.109 131.909 243.675 130.739 250.065" stroke="#4C4AC7" stroke-opacity="0.22" stroke-width="2" stroke-linecap="round" stroke-linejoin="round"/>
<path d="M260.003 119.105C265.051 122.632 263.025 128.097 262.309 132.148C261.139 138.749 257.942 145 255.637 151.408C253.855 156.35 252.353 161.396 250.345 166.233C246.345 175.802 252.738 184.236 253.017 193.316C253.454 207.198 257.069 221.324 248.738 234.42C246.048 238.663 245.21 244.111 242.398 248.232C234.923 259.163 235.918 269.989 240.686 281.531C245.262 292.619 249.017 304.056 246.031 316.419" stroke="#4C4AC7" stroke-opacity="0.22" stroke-width="2" stroke-linecap="round" stroke-linejoin="round"/>
<path d="M335.106 279.75C340.695 276.956 346.284 274.162 352.677 270.949C344.974 264.873 334.425 263.336 330.111 252.947C342.826 237.371 357.078 222.494 362.702 199.951C359.995 197.245 356.502 193.752 352.362 189.631C348.066 194.451 345.079 197.821 342.092 201.173" stroke="#4C4AC7" stroke-opacity="0.22" stroke-width="2" stroke-linecap="round" stroke-linejoin="round"/>
<path d="M307.161 176.727C308.034 184.009 308.593 191.343 309.92 198.537C310.602 202.256 312.645 205.713 314.706 210.864C310.13 219.403 304.593 229.426 299.354 239.623C294.935 248.214 295.214 256.526 301.939 264.052" stroke="#4C4AC7" stroke-opacity="0.22" stroke-width="2" stroke-linecap="round" stroke-linejoin="round"/>
<path d="M78.3594 131.328C81.8176 141.525 86.0792 151.146 83.1625 162.863C81.2762 170.441 83.5991 179.085 84.1056 188.392C93.607 181.599 102.025 180.726 111.667 186.558C103.929 191.57 96.3666 189.998 88.8563 188.933" stroke="#4C4AC7" stroke-opacity="0.22" stroke-width="2" stroke-linecap="round" stroke-linejoin="round"/>
<path d="M451.253 306.815C437.892 301.821 423.622 301.594 410.296 303.829C393.459 306.658 377.268 313.206 359.593 318.514C358.947 308.753 358.545 296.845 349.079 288.481" stroke="#4C4AC7" stroke-opacity="0.22" stroke-width="2" stroke-linecap="round" stroke-linejoin="round"/>
<path d="M309.781 272.765C310.602 276.904 311.44 281.025 312.401 285.861H324.801C327.019 295.395 324.784 302.223 316.348 306.309C321.238 311.931 328.452 309.05 343.298 296.059C339.717 291.502 336.119 286.927 332.504 282.352" stroke="#4C4AC7" stroke-opacity="0.22" stroke-width="2" stroke-linecap="round" stroke-linejoin="round"/>
<path d="M191.887 66.7202C197.424 53.6241 202.576 40.3534 208.619 27.5017C212.444 19.3822 213.23 15.593 209.563 8.6259C213.946 6.80991 218.4 4.95899 223.273 2.95093C223.989 3.80654 225.439 5.55268 227.675 8.24175C225.439 11.5943 222.714 14.9819 220.758 18.7535C212.235 35.2895 202.489 51.4065 203.153 71.103C203.38 77.7733 202.646 84.4959 202.367 91.1837" stroke="#4C4AC7" stroke-opacity="0.22" stroke-width="2" stroke-linecap="round" stroke-linejoin="round"/>
<path d="M224.198 244.827C223.028 250.939 221.631 257.015 220.793 263.179C220.286 266.898 219.692 271.089 220.88 274.459C225.211 286.769 231.063 298.591 231.29 312.054C231.307 313.52 232.914 314.97 233.787 316.419" stroke="#4C4AC7" stroke-opacity="0.22" stroke-width="2" stroke-linecap="round" stroke-linejoin="round"/>
<path d="M163.069 80.6893C159.576 67.8901 156.24 55.0384 152.519 42.2916C150.947 36.9135 148.991 31.5353 146.371 26.6112C142.424 19.2075 142.878 12.415 147.804 5.29077C142.826 4.03354 138.25 2.89855 133.691 1.74609C132.905 2.26994 132.102 2.79378 131.316 3.30016C132.015 6.98453 132.521 10.7038 133.412 14.3183C137.411 30.3479 141.603 46.3252 145.568 62.3548C147.21 69.0076 148.659 75.7128 149.899 82.4355C150.371 84.9674 149.969 87.6564 149.969 90.2756" stroke="#4C4AC7" stroke-opacity="0.22" stroke-width="2" stroke-linecap="round" stroke-linejoin="round"/>
<path d="M39.0618 124.343C42.1008 130.14 43.2187 135.92 41.9611 142.73C40.8782 148.597 42.7296 154.918 42.4327 161.012C42.0834 168.014 41.4197 175.138 39.7954 181.931C37.4026 191.884 38.3457 201.331 41.6817 210.777C42.0834 211.912 42.6423 213.134 42.52 214.252C39.9002 237.808 47.4803 260.699 46.9389 284.098" stroke="#4C4AC7" stroke-opacity="0.22" stroke-width="2" stroke-linecap="round" stroke-linejoin="round"/>
<path d="M59.1475 43.1472C59.4444 44.3171 60.0906 45.522 59.9684 46.6395C58.4488 59.3514 62.7279 70.0553 69.3125 80.8814C74.9365 90.136 77.7834 101.067 81.8529 111.247" stroke="#4C4AC7" stroke-opacity="0.22" stroke-width="2" stroke-linecap="round" stroke-linejoin="round"/>
<path d="M39.935 210.777C39.6381 212.82 38.4329 216.138 39.2014 216.697C48.6155 223.489 45.8209 234.333 47.3579 243.168C49.6285 256.264 48.9298 269.867 49.5761 283.26C49.6809 285.303 50.135 287.328 50.4144 289.371" stroke="#4C4AC7" stroke-opacity="0.22" stroke-width="2" stroke-linecap="round" stroke-linejoin="round"/>
<path d="M336.853 124.343C338.896 128.412 341.656 132.288 342.808 136.601C345.096 145.192 349.341 152.892 348.886 162.776C348.502 171.175 354.004 179.836 358.056 191.744C354.301 194.748 348.642 199.27 342.966 203.775" stroke="#4C4AC7" stroke-opacity="0.22" stroke-width="2" stroke-linecap="round" stroke-linejoin="round"/>
<path d="M81.8527 147.916C80.9794 150.832 79.4599 153.713 79.3551 156.647C79.0232 165.954 79.2852 175.261 79.2154 184.585C79.163 192.216 75.7048 195.01 68.7534 193.333C65.8715 192.635 62.9373 192.146 60.0205 191.57" stroke="#4C4AC7" stroke-opacity="0.22" stroke-width="2" stroke-linecap="round" stroke-linejoin="round"/>
<path d="M108.051 34.4165C112.121 42.571 116.959 50.4461 120.05 58.9498C122.635 66.109 122.268 74.3334 124.888 81.4751C128.137 90.3281 123.77 98.0286 122.373 105.904C121.552 110.514 115.352 114.145 111.562 118.231" stroke="#4C4AC7" stroke-opacity="0.22" stroke-width="2" stroke-linecap="round" stroke-linejoin="round"/>
<path d="M203.24 138.312C204.689 152.281 206.908 166.233 207.362 180.22C207.711 190.627 213.23 195.865 221.614 199.322C225.753 201.034 230.312 201.75 234.678 202.902" stroke="#4C4AC7" stroke-opacity="0.22" stroke-width="2" stroke-linecap="round" stroke-linejoin="round"/>
<path d="M50.4144 64.9741C48.3709 69.6363 44.5285 74.3509 44.6857 78.9258C45.0175 88.2153 38.8172 97.6794 45.786 107.074C47.8295 109.85 46.8514 115.019 46.8863 119.105C46.9562 127.032 47.2182 128.08 53.174 135.134C55.462 131.537 57.4881 128.324 59.9158 124.5C61.4877 124.64 64.7014 124.937 67.8977 125.234" stroke="#4C4AC7" stroke-opacity="0.22" stroke-width="2" stroke-linecap="round" stroke-linejoin="round"/>
<path d="M-55.2534 289.354C-23.1863 272.923 12.7233 271.473 50.1524 307.357C53.0343 301.594 55.6541 296.356 58.274 291.1" stroke="#4C4AC7" stroke-opacity="0.22" stroke-width="2" stroke-linecap="round" stroke-linejoin="round"/>
<path d="M83.5995 188.95C77.1197 205.853 80.543 223.996 77.0673 241.422C74.0283 256.701 74.7618 272.765 74.0981 288.481C73.9759 291.362 75.1635 294.295 75.7399 297.211" stroke="#4C4AC7" stroke-opacity="0.22" stroke-width="2" stroke-linecap="round" stroke-linejoin="round"/>
<path d="M290.569 78.0702C280.735 70.2125 280.264 57.2911 272.125 46.9015C270.989 50.3065 267.881 54.8814 269.068 56.9244C274.256 65.7599 269.418 73.4604 265.68 79.5719C259.829 89.1233 255.655 99.0938 252.126 109.518" stroke="#4C4AC7" stroke-opacity="0.22" stroke-width="2" stroke-linecap="round" stroke-linejoin="round"/>
<path d="M44.3012 57.9895C39.8299 58.7927 38.9217 61.6215 38.9217 65.8472C38.9217 70.7887 37.4721 75.7303 37.3847 80.6894C37.1577 94.6586 37.2974 108.628 37.2974 122.597" stroke="#4C4AC7" stroke-opacity="0.22" stroke-width="2" stroke-linecap="round" stroke-linejoin="round"/>
<path d="M155.209 144.424C167.714 145.07 181.25 145 189.721 155.25C194.647 161.204 195.59 170.564 197.948 178.491C200.795 188.025 204.096 197.559 205.51 207.337C206.279 212.593 203.816 218.425 202.262 223.856C200.969 228.343 198.856 232.622 197.109 236.987" stroke="#4C4AC7" stroke-opacity="0.22" stroke-width="2" stroke-linecap="round" stroke-linejoin="round"/>
<path d="M223.325 298.958C225.491 310.866 212.654 326.25 201.772 325.185C204.864 318.235 207.973 311.215 211.099 304.196" stroke="#4C4AC7" stroke-opacity="0.22" stroke-width="2" stroke-linecap="round" stroke-linejoin="round"/>
<path d="M246.031 317.292C251.585 323.683 248.301 330.091 244.895 335.469C242.59 339.119 238.049 342.279 233.124 338.682C234.416 331.663 235.639 325.01 237.228 316.419H245.14" stroke="#4C4AC7" stroke-opacity="0.22" stroke-width="2" stroke-linecap="round" stroke-linejoin="round"/>
<path d="M135.997 81.5625C136.817 86.4342 138.547 87.3772 145.603 86.8009C151.733 96.1079 153.235 127.451 148.223 141.787C149.393 142.381 150.546 142.974 151.716 143.551" stroke="#4C4AC7" stroke-opacity="0.22" stroke-width="2" stroke-linecap="round" stroke-linejoin="round"/>
<path d="M111.544 79.8163C114.968 72.2904 109.309 69.1997 104.523 65.8995C102.183 64.2931 99.4231 63.2803 96.8382 61.9882C85.695 68.833 82.5861 79.3798 81.8525 91.1662" stroke="#4C4AC7" stroke-opacity="0.22" stroke-width="2" stroke-linecap="round" stroke-linejoin="round"/>
<path d="M266.99 57.9895C265.697 66.371 263.2 73.9667 257.593 80.8465C252.283 87.3597 248.651 95.2348 244.284 102.516" stroke="#4C4AC7" stroke-opacity="0.22" stroke-width="2" stroke-linecap="round" stroke-linejoin="round"/>
<path d="M188.394 84.1816C194.193 98.5175 197.546 113.412 200.026 128.656C200.969 134.401 204.585 140.146 211.99 140.058H233.037C236.198 135.99 239.743 131.415 242.381 128.027C242.451 117.76 240.512 109.379 228.46 109.501C225.928 111.509 223.326 113.569 220.706 115.612" stroke="#4C4AC7" stroke-opacity="0.22" stroke-width="2" stroke-linecap="round" stroke-linejoin="round"/>
<path d="M60.0207 243.081C59.4444 246.276 58.4139 249.472 58.3615 252.685C58.1694 264.908 58.2741 277.131 58.2741 289.354H52.1611" stroke="#4C4AC7" stroke-opacity="0.22" stroke-width="2" stroke-linecap="round" stroke-linejoin="round"/>
<path d="M280.962 57.1165C285.172 58.8102 289.398 60.4865 293.276 62.0406C296.926 75.9574 300.297 88.809 303.668 101.643" stroke="#4C4AC7" stroke-opacity="0.22" stroke-width="2" stroke-linecap="round" stroke-linejoin="round"/>
<path d="M253.017 211.65C241.664 211.074 230.312 210.41 218.959 209.956C216.653 209.869 214.296 210.48 211.973 210.777" stroke="#4C4AC7" stroke-opacity="0.22" stroke-width="2" stroke-linecap="round" stroke-linejoin="round"/>
<path d="M49.541 59.7356C55.1126 63.874 55.5667 70.3696 57.4879 76.2891C60.0554 84.2515 63.2342 92.0393 66.1335 99.8969" stroke="#4C4AC7" stroke-opacity="0.22" stroke-width="2" stroke-linecap="round" stroke-linejoin="round"/>
<path d="M127.264 41.4011C127.561 43.1473 128.242 44.9283 128.067 46.6396C126.844 58.3038 129.796 68.6934 136.73 78.1749C137.935 79.8338 137.446 82.7324 137.726 85.0722" stroke="#4C4AC7" stroke-opacity="0.22" stroke-width="2" stroke-linecap="round" stroke-linejoin="round"/>
<path d="M275.723 77.197C273.103 82.4355 270.012 87.4993 268.003 92.9647C266.169 97.9587 265.715 103.442 264.3 108.61C263.549 111.352 262.047 113.866 260.877 116.485" stroke="#4C4AC7" stroke-opacity="0.22" stroke-width="2" stroke-linecap="round" stroke-linejoin="round"/>
<path d="M317.641 96.4047C324.278 92.3013 333.499 98.0461 334.198 106.882C334.897 115.595 335.77 124.343 335.753 133.074C335.753 135.903 333.237 138.714 331.578 142.136C326.74 139.238 323.072 137.003 319.37 134.82C311.248 130.018 308.209 131.45 306.253 140.914C306.183 141.246 305.746 141.665 305.397 141.752C304.856 141.892 304.244 141.787 303.668 141.787" stroke="#4C4AC7" stroke-opacity="0.22" stroke-width="2" stroke-linecap="round" stroke-linejoin="round"/>
<path d="M195.38 110.374C190.717 116.363 192.079 123.732 191.189 130.472C190.158 138.225 190.438 146.17 190.141 154.027" stroke="#4C4AC7" stroke-opacity="0.22" stroke-width="2" stroke-linecap="round" stroke-linejoin="round"/>
<path d="M136.87 90.2932C136.573 94.0823 135.804 97.8889 136.101 101.643C136.643 108.872 135.106 114.774 127.526 118.074C125.866 115.473 123.945 112.487 122.024 109.501" stroke="#4C4AC7" stroke-opacity="0.22" stroke-width="2" stroke-linecap="round" stroke-linejoin="round"/>
<path d="M279.216 77.197C285.626 89.42 292.018 101.643 298.428 113.866" stroke="#4C4AC7" stroke-opacity="0.22" stroke-width="2" stroke-linecap="round" stroke-linejoin="round"/>
<path d="M58.2739 205.539V240.584C65.0332 243.989 69.8188 248.686 75.7397 243.081" stroke="#4C4AC7" stroke-opacity="0.22" stroke-width="2" stroke-linecap="round" stroke-linejoin="round"/>
<path d="M295.808 43.1473C296.734 40.8424 297.659 38.5375 299.057 34.9928C300.332 37.8565 301.275 40.0042 302.323 42.3615C302.934 41.8551 303.703 41.1567 304.558 40.563C304.646 40.4932 305.152 41.0345 305.711 41.5059C305.868 42.2393 306.55 43.5489 306.2 43.9505C299.424 51.7383 300 59.7357 304.401 68.5188C307.894 75.5034 309.92 83.2213 313.414 90.2059C315.405 94.1697 319.072 97.2778 321.972 100.77" stroke="#4C4AC7" stroke-opacity="0.22" stroke-width="2" stroke-linecap="round" stroke-linejoin="round"/>
<path d="M301.921 141.804C300.472 148.492 298.847 155.162 297.607 161.885C296.367 168.59 298.603 173.968 304.541 177.6" stroke="#4C4AC7" stroke-opacity="0.22" stroke-width="2" stroke-linecap="round" stroke-linejoin="round"/>
<path d="M365.671 317.292C367.994 312.63 370.562 308.072 372.588 303.288C374.439 298.888 375.714 294.243 377.059 290.244C368.902 286.455 361.811 283.172 353.131 279.139C351.122 280.396 347.489 282.701 343.856 284.988" stroke="#4C4AC7" stroke-opacity="0.22" stroke-width="2" stroke-linecap="round" stroke-linejoin="round"/>
<path d="M190.141 37.0358C187.591 34.9055 185.023 32.7752 182.002 30.2607C172.273 40.1439 168.763 52.6812 164.903 65.009C164.71 65.6376 165.968 66.7203 166.544 67.5933" stroke="#4C4AC7" stroke-opacity="0.22" stroke-width="2" stroke-linecap="round" stroke-linejoin="round"/>
<path d="M312.401 194.189C313.082 196.546 313.746 198.921 314.654 202.046H341.219" stroke="#4C4AC7" stroke-opacity="0.22" stroke-width="2" stroke-linecap="round" stroke-linejoin="round"/>
<path d="M304.541 143.551C302.76 154.656 303.93 165.692 305.414 176.727" stroke="#4C4AC7" stroke-opacity="0.22" stroke-width="2" stroke-linecap="round" stroke-linejoin="round"/>
<path d="M350.825 287.608C359.733 290.105 362.789 296.338 362.213 305.069C361.986 308.544 362.178 312.054 362.178 315.546" stroke="#4C4AC7" stroke-opacity="0.22" stroke-width="2" stroke-linecap="round" stroke-linejoin="round"/>
<path d="M229.438 98.1508C230.609 97.5746 232.827 96.6142 232.774 96.457C230.556 89.9963 240.983 84.9674 234.713 78.0352C230.155 73.0063 224.373 73.4428 217.212 79.8163" stroke="#4C4AC7" stroke-opacity="0.22" stroke-width="2" stroke-linecap="round" stroke-linejoin="round"/>
<path d="M189.267 50.1318C187.573 63.8391 192.201 75.7303 199.747 86.8009" stroke="#4C4AC7" stroke-opacity="0.22" stroke-width="2" stroke-linecap="round" stroke-linejoin="round"/>
<path d="M109.798 119.105C107.003 121.305 104.209 123.522 101.554 125.618C95.3188 120.763 89.5901 116.276 83.6517 111.666C82.6038 119.96 85.0664 121.846 94.9521 120.868" stroke="#4C4AC7" stroke-opacity="0.22" stroke-width="2" stroke-linecap="round" stroke-linejoin="round"/>
<path d="M42.5547 147.043C45.6811 150.954 48.8074 154.848 51.9338 158.759C48.8948 165.185 46.1526 170.948 43.428 176.727" stroke="#4C4AC7" stroke-opacity="0.22" stroke-width="2" stroke-linecap="round" stroke-linejoin="round"/>
<path d="M292.315 43.1473C291.931 40.4408 291.547 37.7342 291.163 35.0277H288.036C287.53 40.3709 287.006 45.6967 286.482 51.2494C283.338 51.7732 280.404 52.2622 277.487 52.7511" stroke="#4C4AC7" stroke-opacity="0.22" stroke-width="2" stroke-linecap="round" stroke-linejoin="round"/>
<path d="M216.339 86.8009C213.754 87.7787 211.169 88.7391 208.514 89.7519C207.536 93.2616 206.453 97.0682 205.37 100.98C206.139 103.599 206.995 106.515 207.92 109.71C204.829 112.015 201.86 114.25 198.873 116.485" stroke="#4C4AC7" stroke-opacity="0.22" stroke-width="2" stroke-linecap="round" stroke-linejoin="round"/>
<path d="M182.281 44.8934C180.412 53.2225 177.181 61.2374 183.748 69.5665C186.35 72.8667 185.774 78.6639 186.647 83.3086" stroke="#4C4AC7" stroke-opacity="0.22" stroke-width="2" stroke-linecap="round" stroke-linejoin="round"/>
<path d="M112.418 85.9278C115.439 79.3623 109.728 78.7162 106.27 78.2972C101.135 77.686 95.8252 78.6464 90.5854 78.9432" stroke="#4C4AC7" stroke-opacity="0.22" stroke-width="2" stroke-linecap="round" stroke-linejoin="round"/>
<path d="M332.486 113.866C330.32 110.845 328.155 107.824 325.29 103.826C323.334 108.75 321.011 112.522 320.487 116.52C319.911 120.938 317.972 122.038 314.165 121.724" stroke="#4C4AC7" stroke-opacity="0.22" stroke-width="2" stroke-linecap="round" stroke-linejoin="round"/>
<path d="M67.8802 105.135C69.1203 109.85 70.3603 114.582 71.8449 120.187C71.1812 121.916 70.1158 124.745 68.6138 128.708H60.0381" stroke="#4C4AC7" stroke-opacity="0.22" stroke-width="2" stroke-linecap="round" stroke-linejoin="round"/>
<path d="M295.808 92.9124C299.878 98.727 303.738 104.716 308.087 110.321C313.344 117.079 313.326 123.994 309.781 131.328" stroke="#4C4AC7" stroke-opacity="0.22" stroke-width="2" stroke-linecap="round" stroke-linejoin="round"/>
<path d="M230.312 141.804C224.845 144.546 219.361 147.27 213.125 150.395C215.885 151.094 218.295 151.688 220.706 152.281" stroke="#4C4AC7" stroke-opacity="0.22" stroke-width="2" stroke-linecap="round" stroke-linejoin="round"/>
<path d="M184.027 85.0547C178.159 89.4725 172.308 93.8902 165.95 98.6921C163.959 88.0174 164.163 81.4402 166.561 78.9607C165.845 75.8002 165.112 72.6222 164.046 67.96C170.282 67.5234 175.836 67.1218 181.407 66.7377" stroke="#4C4AC7" stroke-opacity="0.22" stroke-width="2" stroke-linecap="round" stroke-linejoin="round"/>
<path d="M218.959 122.597C218.051 129.215 220.688 134.767 224.199 140.058" stroke="#4C4AC7" stroke-opacity="0.22" stroke-width="2" stroke-linecap="round" stroke-linejoin="round"/>
<path d="M251.271 110.374C249.227 108.051 247.166 105.729 245.297 103.616C233.875 100.526 224.461 102.307 218.959 113.866" stroke="#4C4AC7" stroke-opacity="0.22" stroke-width="2" stroke-linecap="round" stroke-linejoin="round"/>
<path d="M151.716 144.424C145.376 150.57 145.428 150.937 154.633 157.485C154.196 152.281 153.829 147.916 153.462 143.551" stroke="#4C4AC7" stroke-opacity="0.22" stroke-width="2" stroke-linecap="round" stroke-linejoin="round"/>
<path d="M111.545 95.5315C109.379 91.6551 107.231 87.7787 105.292 84.3038C100.209 84.5832 95.8254 84.8277 91.459 85.0547" stroke="#4C4AC7" stroke-opacity="0.22" stroke-width="2" stroke-linecap="round" stroke-linejoin="round"/>
<path d="M211.972 194.189C203.449 195.01 208.549 202.658 205.859 206.412" stroke="#4C4AC7" stroke-opacity="0.22" stroke-width="2" stroke-linecap="round" stroke-linejoin="round"/>
<path d="M55.6543 109.501C56.8245 114.163 57.9772 118.808 59.1474 123.47" stroke="#4C4AC7" stroke-opacity="0.22" stroke-width="2" stroke-linecap="round" stroke-linejoin="round"/>
<path d="M279.216 63.2279C278.639 67.5933 278.046 71.9586 277.469 76.324" stroke="#4C4AC7" stroke-opacity="0.22" stroke-width="2" stroke-linecap="round" stroke-linejoin="round"/>
<path d="M63.5136 100.77C57.9945 99.8271 56.2479 101.573 55.689 108.296C58.466 105.345 61.4352 102.184 64.9458 98.4302C68.5612 105.52 65.5571 104.839 61.7671 103.389" stroke="#4C4AC7" stroke-opacity="0.22" stroke-width="2" stroke-linecap="round" stroke-linejoin="round"/>
<path d="M88.8389 96.4047C90.5854 100.77 92.5591 105.066 94.0087 109.518C95.0043 112.591 95.2488 115.892 95.8252 119.105" stroke="#4C4AC7" stroke-opacity="0.22" stroke-width="2" stroke-linecap="round" stroke-linejoin="round"/>
<path d="M301.048 104.262V115.595C300.419 115.927 299.773 116.241 299.144 116.573C302.69 120.327 306.235 124.081 309.781 127.818" stroke="#4C4AC7" stroke-opacity="0.22" stroke-width="2" stroke-linecap="round" stroke-linejoin="round"/>
<path d="M193.633 36.1626C194.524 36.3547 195.415 36.5642 197.633 37.0532C195.502 39.1835 194.035 40.6502 192.585 42.0995C191.904 41.6979 191.223 41.2788 190.542 40.8772C191.276 39.0088 192.009 37.1579 192.76 35.2896" stroke="#4C4AC7" stroke-opacity="0.22" stroke-width="2" stroke-linecap="round" stroke-linejoin="round"/>
<path d="M108.925 110.374C106.846 111.771 104.768 113.168 102.427 114.722C101.03 114.215 99.3009 113.604 97.5718 112.993" stroke="#4C4AC7" stroke-opacity="0.22" stroke-width="2" stroke-linecap="round" stroke-linejoin="round"/>
<path d="M184.901 79.8163C179.084 83.5007 173.495 89.5423 166.562 81.5624" stroke="#4C4AC7" stroke-opacity="0.22" stroke-width="2" stroke-linecap="round" stroke-linejoin="round"/>
<path d="M225.945 233.477C225.648 236.672 225.386 239.885 225.037 243.081C225.002 243.395 224.495 243.902 224.198 243.902C223.902 243.902 223.622 243.378 223.325 243.098" stroke="#4C4AC7" stroke-opacity="0.22" stroke-width="2" stroke-linecap="round" stroke-linejoin="round"/>
<path d="M157.829 71.0856C154.231 73.4079 150.633 75.7303 146.65 78.2972C144.729 75.9922 143.419 74.4032 142.022 72.7095C140.887 73.6349 139.751 74.5429 138.616 75.4509" stroke="#4C4AC7" stroke-opacity="0.22" stroke-width="2" stroke-linecap="round" stroke-linejoin="round"/>
<path d="M184.901 34.4165C183.87 37.4723 182.857 40.528 181.303 45.1378C184.324 43.4615 185.477 42.8329 186.612 42.2043C187.224 44.3171 187.817 46.3427 188.394 48.3857" stroke="#4C4AC7" stroke-opacity="0.22" stroke-width="2" stroke-linecap="round" stroke-linejoin="round"/>
<path d="M238.171 217.762C235.027 220.451 231.883 223.14 228.879 225.689C227.412 225.323 226.242 225.026 225.072 224.746" stroke="#4C4AC7" stroke-opacity="0.22" stroke-width="2" stroke-linecap="round" stroke-linejoin="round"/>
<path d="M225.945 147.043C224.198 149.086 221.614 150.867 220.915 153.224C220.042 156.158 220.705 159.563 220.705 162.758" stroke="#4C4AC7" stroke-opacity="0.22" stroke-width="2" stroke-linecap="round" stroke-linejoin="round"/>
<path d="M45.1748 187.204C49.5412 189.247 53.9077 191.273 58.2741 193.316" stroke="#4C4AC7" stroke-opacity="0.22" stroke-width="2" stroke-linecap="round" stroke-linejoin="round"/>
<path d="M48.668 120.851L56.5276 126.089" stroke="#4C4AC7" stroke-opacity="0.22" stroke-width="2" stroke-linecap="round" stroke-linejoin="round"/>
<path d="M87.9659 93.7855C85.346 98.8144 82.7261 98.8318 79.7744 93.1568C83.8614 92.3362 87.7563 91.5504 91.5813 90.7821C90.4285 86.539 89.6426 83.6229 88.0532 77.8082C86.359 80.8116 85.4159 82.4879 84.4727 84.1642" stroke="#4C4AC7" stroke-opacity="0.22" stroke-width="2" stroke-linecap="round" stroke-linejoin="round"/>
<path d="M80.1059 115.612C78.4292 118.546 76.735 121.497 74.9186 124.675C75.7919 126.037 76.8224 127.661 78.7087 130.629C75.46 130.158 73.4165 129.878 71.373 129.581" stroke="#4C4AC7" stroke-opacity="0.22" stroke-width="2" stroke-linecap="round" stroke-linejoin="round"/>
<path d="M107.178 85.9279C112.069 86.5332 114.106 89.7345 113.291 95.5317" stroke="#4C4AC7" stroke-opacity="0.22" stroke-width="2" stroke-linecap="round" stroke-linejoin="round"/>
<path d="M217.212 217.762C221.177 221.656 224.775 225.777 225.072 231.731" stroke="#4C4AC7" stroke-opacity="0.22" stroke-width="2" stroke-linecap="round" stroke-linejoin="round"/>
<path d="M253.891 108.628C255.934 111.544 257.96 114.442 260.004 117.358" stroke="#4C4AC7" stroke-opacity="0.22" stroke-width="2" stroke-linecap="round" stroke-linejoin="round"/>
<path d="M211.099 133.074C208.479 133.65 205.86 134.244 203.24 134.82" stroke="#4C4AC7" stroke-opacity="0.22" stroke-width="2" stroke-linecap="round" stroke-linejoin="round"/>
<path d="M126.391 39.655C122.985 36.6342 119.579 33.6133 114.95 29.4924C115.422 33.8054 115.736 36.6691 116.103 40.0741C113.571 39.0788 112.121 38.4851 110.671 37.9089" stroke="#4C4AC7" stroke-opacity="0.22" stroke-width="2" stroke-linecap="round" stroke-linejoin="round"/>
<path d="M46.0479 119.978C43.0788 120.956 40.1096 121.933 37.3325 122.859C37.6818 124.919 37.9438 126.369 38.1883 127.835" stroke="#4C4AC7" stroke-opacity="0.22" stroke-width="2" stroke-linecap="round" stroke-linejoin="round"/>
<path d="M206.733 90.2932L204.113 98.1509" stroke="#4C4AC7" stroke-opacity="0.22" stroke-width="2" stroke-linecap="round" stroke-linejoin="round"/>
<path d="M209.353 88.547C210.907 85.5437 212.479 82.5228 214.103 79.3623C218.435 80.7941 222.19 82.0514 225.945 83.3086" stroke="#4C4AC7" stroke-opacity="0.22" stroke-width="2" stroke-linecap="round" stroke-linejoin="round"/>
<path d="M53.9074 41.4011C51.9163 43.7759 49.9427 46.1506 49.1044 47.1459V58.8626C48.4581 58.9673 47.8119 59.0721 47.1482 59.1594C46.7814 57.3085 46.4146 55.4576 46.0479 53.6241" stroke="#4C4AC7" stroke-opacity="0.22" stroke-width="2" stroke-linecap="round" stroke-linejoin="round"/>
<path d="M212.846 85.0547C215.728 86.0151 218.609 86.9755 222.068 88.1279C223.412 90.2407 225.124 92.8774 226.818 95.5316" stroke="#4C4AC7" stroke-opacity="0.22" stroke-width="2" stroke-linecap="round" stroke-linejoin="round"/>
<path d="M111.544 99.0239V114.739" stroke="#4C4AC7" stroke-opacity="0.22" stroke-width="2" stroke-linecap="round" stroke-linejoin="round"/>
<path d="M60.894 36.1627C59.9683 38.3105 59.0601 40.4408 57.5406 43.968C55.6892 40.8599 54.6238 39.0788 53.1392 36.5818C52.7899 38.0311 52.4755 39.2709 52.1611 40.5281" stroke="#4C4AC7" stroke-opacity="0.22" stroke-width="2" stroke-linecap="round" stroke-linejoin="round"/>
<path d="M209.353 112.12C209.929 113.866 210.523 115.612 211.099 117.358" stroke="#4C4AC7" stroke-opacity="0.22" stroke-width="2" stroke-linecap="round" stroke-linejoin="round"/>
<path d="M142.983 89.42C144.433 89.9963 145.9 90.59 147.349 91.1662" stroke="#4C4AC7" stroke-opacity="0.22" stroke-width="2" stroke-linecap="round" stroke-linejoin="round"/>
<path d="M88.8389 87.674V91.1662" stroke="#4C4AC7" stroke-opacity="0.22" stroke-width="2" stroke-linecap="round" stroke-linejoin="round"/>
<path d="M112.418 45.7665C111.615 46.43 110.811 47.111 109.466 48.2285C110.724 48.8572 111.999 49.5032 113.291 50.1318" stroke="#4C4AC7" stroke-opacity="0.22" stroke-width="2" stroke-linecap="round" stroke-linejoin="round"/>
<path d="M286.202 74.5779C287.949 77.7733 289.678 80.9862 291.459 84.1817C291.651 84.5309 292.036 84.7754 292.315 85.0548C292.612 84.7579 292.892 84.4785 293.188 84.1817" stroke="#4C4AC7" stroke-opacity="0.22" stroke-width="2" stroke-linecap="round" stroke-linejoin="round"/>
<path d="M112.418 97.2777V103.389" stroke="#4C4AC7" stroke-opacity="0.22" stroke-width="2" stroke-linecap="round" stroke-linejoin="round"/>
<path d="M232.058 91.1662C230.382 86.3468 227.133 88.6168 224.199 89.42" stroke="#4C4AC7" stroke-opacity="0.22" stroke-width="2" stroke-linecap="round" stroke-linejoin="round"/>
<path d="M223.325 237.842V243.081" stroke="#4C4AC7" stroke-opacity="0.22" stroke-width="2" stroke-linecap="round" stroke-linejoin="round"/>
<path d="M303.668 138.312V141.804" stroke="#4C4AC7" stroke-opacity="0.22" stroke-width="2" stroke-linecap="round" stroke-linejoin="round"/>
<path d="M294.935 84.1816V87.6739" stroke="#4C4AC7" stroke-opacity="0.22" stroke-width="2" stroke-linecap="round" stroke-linejoin="round"/>
<path d="M292.315 85.9279C293.188 86.5041 294.062 87.0978 294.935 87.674" stroke="#4C4AC7" stroke-opacity="0.22" stroke-width="2" stroke-linecap="round" stroke-linejoin="round"/>
<path d="M296.682 87.674V91.1662" stroke="#4C4AC7" stroke-opacity="0.22" stroke-width="2" stroke-linecap="round" stroke-linejoin="round"/>
<path d="M294.062 89.42C294.935 89.9963 295.808 90.59 296.681 91.1662" stroke="#4C4AC7" stroke-opacity="0.22" stroke-width="2" stroke-linecap="round" stroke-linejoin="round"/>
</g>
<defs>
<clipPath id="clip0_2_2867">
<rect width="510" height="342" fill="white" transform="translate(-57)"/>
</clipPath>
</defs>
</svg>
