<svg width="666" height="447" viewBox="0 0 666 447" fill="none" xmlns="http://www.w3.org/2000/svg">
<g opacity="0.23">
<path d="M423.093 366.779C424.621 382.755 426.605 398.708 427.517 414.706C428.247 427.624 427.654 427.669 440.746 433.74C442.115 429.974 444.19 426.414 444.601 422.671C445.239 416.646 444.509 410.507 444.806 404.436C446.22 375.132 447.748 345.851 449.345 316.57C450.006 304.36 450.941 292.15 451.831 278.73C461.638 283.044 462.3 290.849 462.938 298.312C464.672 318.784 466.953 338.981 472.837 358.905C475.985 369.586 479.771 381.317 474.593 393.093C473.681 395.193 474.183 399.666 475.711 400.785C486.864 408.955 498.816 415.551 514.439 417.103C508.441 408.111 503.697 400.351 498.268 393.071C494.163 387.57 488.689 389.419 483.534 391.861" stroke="#4C4AC7" stroke-opacity="0.22" stroke-width="2" stroke-linecap="round" stroke-linejoin="round"/>
<path d="M416.25 151.107C417.39 156.813 418.508 162.518 419.671 168.224C421.154 175.459 423.959 182.671 424.027 189.905C424.438 234.797 424.233 279.666 424.233 324.558C424.233 335.216 424.871 345.919 423.982 356.486C423.457 362.694 420.561 368.719 418.371 375.977C406.693 361.735 401.995 345.258 396.931 329.099C391.252 310.955 386.85 292.378 380.601 274.44C377.385 265.219 371.363 256.98 366.619 248.308C365.57 248.399 364.521 248.513 363.472 248.605C354.075 270.309 344.678 291.99 334.14 316.387C343.56 345.258 334.14 372.462 313.225 397.019C310.511 395.832 308.413 395.284 306.816 394.098C304.695 392.5 302.961 390.377 300.316 387.73C317.695 364.52 314.48 340.556 301.068 316.593" stroke="#4C4AC7" stroke-opacity="0.22" stroke-width="2" stroke-linecap="round" stroke-linejoin="round"/>
<path d="M345.545 205.881C360.256 211.838 374.99 217.429 391.48 210.126C394.217 223.295 396.042 235.299 399.304 246.916C404.458 265.334 410.867 283.386 416.136 301.781C418.462 309.906 419.306 318.487 420.834 326.84" stroke="#4C4AC7" stroke-opacity="0.22" stroke-width="2" stroke-linecap="round" stroke-linejoin="round"/>
<path d="M252.031 155.672C245.439 160.282 248.085 167.425 249.02 172.72C250.548 181.347 254.722 189.518 257.733 197.893C260.059 204.352 262.021 210.948 264.644 217.27C269.867 229.776 261.519 240.8 261.154 252.667C260.584 270.811 255.863 289.274 266.742 306.391C270.255 311.937 271.35 319.058 275.022 324.444C284.784 338.731 283.484 352.88 277.257 367.966C271.281 382.458 266.377 397.407 270.278 413.565" stroke="#4C4AC7" stroke-opacity="0.22" stroke-width="2" stroke-linecap="round" stroke-linejoin="round"/>
<path d="M153.955 365.638C146.657 361.987 139.358 358.335 131.01 354.136C141.069 346.193 154.845 344.185 160.479 330.606C143.874 310.248 125.263 290.803 117.918 261.34C121.454 257.802 126.015 253.238 131.421 247.852C137.032 254.151 140.932 258.555 144.832 262.937" stroke="#4C4AC7" stroke-opacity="0.22" stroke-width="2" stroke-linecap="round" stroke-linejoin="round"/>
<path d="M190.449 230.986C189.308 240.503 188.579 250.088 186.845 259.491C185.956 264.352 183.287 268.871 180.596 275.604C186.571 286.764 193.802 299.864 200.644 313.192C206.415 324.421 206.05 335.284 197.268 345.121" stroke="#4C4AC7" stroke-opacity="0.22" stroke-width="2" stroke-linecap="round" stroke-linejoin="round"/>
<path d="M489.236 171.647C484.72 184.976 479.155 197.551 482.964 212.865C485.427 222.77 482.394 234.067 481.732 246.231C469.325 237.353 458.331 236.212 445.741 243.835C455.845 250.385 465.721 248.331 475.529 246.939" stroke="#4C4AC7" stroke-opacity="0.22" stroke-width="2" stroke-linecap="round" stroke-linejoin="round"/>
<path d="M2.2809 401.013C19.7292 394.486 38.3635 394.189 55.7662 397.11C77.7533 400.807 98.8965 409.366 121.978 416.304C122.822 403.546 123.347 387.981 135.709 377.049" stroke="#4C4AC7" stroke-opacity="0.22" stroke-width="2" stroke-linecap="round" stroke-linejoin="round"/>
<path d="M187.027 356.509C185.955 361.918 184.861 367.304 183.606 373.626H167.412C164.516 386.087 167.435 395.01 178.451 400.351C172.065 407.7 162.645 403.934 143.258 386.954C147.934 380.997 152.633 375.018 157.354 369.039" stroke="#4C4AC7" stroke-opacity="0.22" stroke-width="2" stroke-linecap="round" stroke-linejoin="round"/>
<path d="M340.983 87.2044C333.753 70.0876 327.024 52.7426 319.133 35.9453C314.138 25.3328 313.111 20.3804 317.901 11.2742C312.176 8.90069 306.36 6.48151 299.997 3.85693C299.061 4.97523 297.168 7.25747 294.249 10.7721C297.168 15.154 300.726 19.5816 303.281 24.5112C314.411 46.1241 327.138 67.1892 326.272 92.9329C325.975 101.651 326.933 110.438 327.298 119.179" stroke="#4C4AC7" stroke-opacity="0.22" stroke-width="2" stroke-linecap="round" stroke-linejoin="round"/>
<path d="M298.788 319.993C300.316 327.981 302.14 335.923 303.235 343.98C303.897 348.841 304.672 354.318 303.121 358.723C297.465 374.813 289.824 390.263 289.527 407.859C289.505 409.777 287.406 411.671 286.266 413.565" stroke="#4C4AC7" stroke-opacity="0.22" stroke-width="2" stroke-linecap="round" stroke-linejoin="round"/>
<path d="M378.616 105.462C383.178 88.7336 387.534 71.9363 392.392 55.2759C394.445 48.2466 397 41.2173 400.421 34.7814C405.576 25.1046 404.982 16.2267 398.551 6.91518C405.051 5.27196 411.027 3.78851 416.98 2.28223C418.006 2.9669 419.055 3.65157 420.082 4.31342C419.169 9.12895 418.508 13.9901 417.345 18.7144C412.121 39.6654 406.647 60.5479 401.47 81.4989C399.326 90.1942 397.433 98.958 395.814 107.745C395.198 111.054 395.722 114.569 395.722 117.992" stroke="#4C4AC7" stroke-opacity="0.22" stroke-width="2" stroke-linecap="round" stroke-linejoin="round"/>
<path d="M540.555 162.519C536.586 170.096 535.126 177.65 536.769 186.551C538.183 194.219 535.765 202.481 536.153 210.446C536.609 219.597 537.476 228.909 539.597 237.787C542.721 250.796 541.49 263.143 537.133 275.49C536.609 276.973 535.879 278.571 536.039 280.031C539.46 310.819 529.561 340.739 530.268 371.321" stroke="#4C4AC7" stroke-opacity="0.22" stroke-width="2" stroke-linecap="round" stroke-linejoin="round"/>
<path d="M514.325 56.3942C513.937 57.9233 513.094 59.498 513.253 60.9586C515.238 77.5734 509.65 91.5635 501.051 105.713C493.707 117.809 489.989 132.096 484.675 145.402" stroke="#4C4AC7" stroke-opacity="0.22" stroke-width="2" stroke-linecap="round" stroke-linejoin="round"/>
<path d="M539.414 275.49C539.802 278.16 541.376 282.496 540.372 283.226C528.079 292.104 531.728 306.277 529.721 317.825C526.756 334.942 527.668 352.721 526.824 370.225C526.687 372.896 526.094 375.543 525.729 378.213" stroke="#4C4AC7" stroke-opacity="0.22" stroke-width="2" stroke-linecap="round" stroke-linejoin="round"/>
<path d="M151.675 162.519C149.006 167.836 145.403 172.903 143.897 178.54C140.909 189.769 135.367 199.833 135.96 212.751C136.462 223.728 129.277 235.048 123.986 250.613C128.889 254.539 136.279 260.45 143.692 266.338" stroke="#4C4AC7" stroke-opacity="0.22" stroke-width="2" stroke-linecap="round" stroke-linejoin="round"/>
<path d="M484.675 193.329C485.815 197.14 487.8 200.906 487.936 204.74C488.37 216.904 488.028 229.069 488.119 241.256C488.187 251.229 492.703 254.881 501.781 252.69C505.544 251.777 509.376 251.138 513.185 250.385" stroke="#4C4AC7" stroke-opacity="0.22" stroke-width="2" stroke-linecap="round" stroke-linejoin="round"/>
<path d="M450.462 44.983C445.148 55.6411 438.83 65.934 434.793 77.0485C431.418 86.4057 431.897 97.1551 428.475 106.489C424.233 118.06 429.935 128.125 431.76 138.418C432.832 144.443 440.929 149.19 445.878 154.531" stroke="#4C4AC7" stroke-opacity="0.22" stroke-width="2" stroke-linecap="round" stroke-linejoin="round"/>
<path d="M326.158 180.776C324.265 199.034 321.368 217.269 320.775 235.55C320.319 249.152 313.111 255.999 302.163 260.518C296.758 262.755 290.805 263.69 285.103 265.197" stroke="#4C4AC7" stroke-opacity="0.22" stroke-width="2" stroke-linecap="round" stroke-linejoin="round"/>
<path d="M525.729 84.9222C528.398 91.0158 533.416 97.1779 533.21 103.157C532.777 115.299 540.874 127.669 531.773 139.947C529.105 143.576 530.382 150.331 530.337 155.672C530.245 166.033 529.903 167.402 522.126 176.623C519.138 171.921 516.492 167.722 513.322 162.724C511.269 162.906 507.072 163.294 502.898 163.682" stroke="#4C4AC7" stroke-opacity="0.22" stroke-width="2" stroke-linecap="round" stroke-linejoin="round"/>
<path d="M663.719 378.19C621.843 356.714 574.95 354.82 526.072 401.72C522.308 394.189 518.887 387.342 515.466 380.473" stroke="#4C4AC7" stroke-opacity="0.22" stroke-width="2" stroke-linecap="round" stroke-linejoin="round"/>
<path d="M482.394 246.961C490.856 269.054 486.385 292.766 490.924 315.543C494.893 335.512 493.935 356.509 494.802 377.049C494.961 380.815 493.41 384.649 492.658 388.46" stroke="#4C4AC7" stroke-opacity="0.22" stroke-width="2" stroke-linecap="round" stroke-linejoin="round"/>
<path d="M212.117 102.039C224.958 91.769 225.573 74.8804 236.202 61.301C237.685 65.7514 241.744 71.7309 240.193 74.4011C233.419 85.9492 239.737 96.0139 244.618 104.002C252.259 116.486 257.71 129.517 262.317 143.142" stroke="#4C4AC7" stroke-opacity="0.22" stroke-width="2" stroke-linecap="round" stroke-linejoin="round"/>
<path d="M533.712 75.7932C539.551 76.843 540.737 80.5403 540.737 86.0633C540.737 92.5221 542.63 98.9808 542.744 105.462C543.041 123.72 542.859 141.978 542.859 160.236" stroke="#4C4AC7" stroke-opacity="0.22" stroke-width="2" stroke-linecap="round" stroke-linejoin="round"/>
<path d="M388.88 188.764C372.55 189.609 354.873 189.517 343.811 202.914C337.379 210.697 336.148 222.929 333.069 233.291C329.351 245.752 325.04 258.213 323.193 270.993C322.189 277.863 325.405 285.486 327.435 292.583C329.123 298.449 331.883 304.04 334.163 309.746" stroke="#4C4AC7" stroke-opacity="0.22" stroke-width="2" stroke-linecap="round" stroke-linejoin="round"/>
<path d="M299.928 390.743C297.1 406.308 313.864 426.414 328.073 425.022C324.036 415.939 319.976 406.764 315.894 397.589" stroke="#4C4AC7" stroke-opacity="0.22" stroke-width="2" stroke-linecap="round" stroke-linejoin="round"/>
<path d="M270.278 414.706C263.025 423.059 267.312 431.435 271.76 438.464C274.771 443.234 280.701 447.365 287.133 442.664C285.445 433.489 283.848 424.794 281.773 413.565H271.441" stroke="#4C4AC7" stroke-opacity="0.22" stroke-width="2" stroke-linecap="round" stroke-linejoin="round"/>
<path d="M413.969 106.604C412.897 112.971 410.639 114.203 401.425 113.45C393.419 125.615 391.458 166.581 398.003 185.318C396.475 186.094 394.97 186.87 393.442 187.623" stroke="#4C4AC7" stroke-opacity="0.22" stroke-width="2" stroke-linecap="round" stroke-linejoin="round"/>
<path d="M445.901 104.321C441.43 94.4849 448.82 90.4453 455.07 86.1319C458.126 84.0322 461.73 82.7085 465.105 81.0197C479.657 89.966 483.717 103.751 484.675 119.156" stroke="#4C4AC7" stroke-opacity="0.22" stroke-width="2" stroke-linecap="round" stroke-linejoin="round"/>
<path d="M242.907 75.7932C244.595 86.748 247.857 96.6757 255.178 105.668C262.112 114.181 266.856 124.473 272.558 133.99" stroke="#4C4AC7" stroke-opacity="0.22" stroke-width="2" stroke-linecap="round" stroke-linejoin="round"/>
<path d="M345.544 110.027C337.972 128.764 333.593 148.232 330.354 168.156C329.123 175.664 324.401 183.173 314.731 183.059H287.247C283.118 177.741 278.488 171.762 275.044 167.334C274.953 153.914 277.485 142.96 293.222 143.119C296.53 145.744 299.928 148.437 303.349 151.107" stroke="#4C4AC7" stroke-opacity="0.22" stroke-width="2" stroke-linecap="round" stroke-linejoin="round"/>
<path d="M513.185 317.711C513.938 321.887 515.283 326.064 515.352 330.263C515.603 346.239 515.466 362.215 515.466 378.19H523.449" stroke="#4C4AC7" stroke-opacity="0.22" stroke-width="2" stroke-linecap="round" stroke-linejoin="round"/>
<path d="M224.661 74.6521C219.164 76.8659 213.645 79.0568 208.581 81.088C203.814 99.2775 199.412 116.075 195.01 132.849" stroke="#4C4AC7" stroke-opacity="0.22" stroke-width="2" stroke-linecap="round" stroke-linejoin="round"/>
<path d="M261.154 276.631C275.979 275.877 290.805 275.01 305.63 274.417C308.641 274.303 311.72 275.101 314.753 275.489" stroke="#4C4AC7" stroke-opacity="0.22" stroke-width="2" stroke-linecap="round" stroke-linejoin="round"/>
<path d="M526.87 78.0756C519.594 83.4845 519.001 91.9744 516.492 99.7112C513.139 110.118 508.988 120.297 505.202 130.567" stroke="#4C4AC7" stroke-opacity="0.22" stroke-width="2" stroke-linecap="round" stroke-linejoin="round"/>
<path d="M425.373 54.1119C424.985 56.3942 424.096 58.7221 424.324 60.9587C425.92 76.204 422.066 89.7834 413.011 102.176C411.437 104.344 412.076 108.133 411.711 111.191" stroke="#4C4AC7" stroke-opacity="0.22" stroke-width="2" stroke-linecap="round" stroke-linejoin="round"/>
<path d="M231.504 100.898C234.925 107.745 238.962 114.363 241.585 121.507C243.98 128.034 244.573 135.2 246.42 141.955C247.401 145.539 249.362 148.825 250.891 152.248" stroke="#4C4AC7" stroke-opacity="0.22" stroke-width="2" stroke-linecap="round" stroke-linejoin="round"/>
<path d="M176.764 126.002C168.097 120.639 156.054 128.148 155.141 139.696C154.229 151.084 153.089 162.518 153.112 173.93C153.112 177.627 156.396 181.301 158.563 185.774C164.881 181.986 169.67 179.065 174.506 176.212C185.111 169.936 189.08 171.807 191.635 184.177C191.726 184.61 192.296 185.158 192.752 185.272C193.459 185.455 194.258 185.318 195.01 185.318" stroke="#4C4AC7" stroke-opacity="0.22" stroke-width="2" stroke-linecap="round" stroke-linejoin="round"/>
<path d="M336.421 144.26C342.511 152.089 340.732 161.72 341.895 170.529C343.241 180.662 342.876 191.046 343.264 201.317" stroke="#4C4AC7" stroke-opacity="0.22" stroke-width="2" stroke-linecap="round" stroke-linejoin="round"/>
<path d="M412.829 118.015C413.217 122.967 414.22 127.942 413.832 132.849C413.125 142.298 415.132 150.012 425.031 154.325C427.198 150.925 429.707 147.022 432.216 143.119" stroke="#4C4AC7" stroke-opacity="0.22" stroke-width="2" stroke-linecap="round" stroke-linejoin="round"/>
<path d="M226.942 100.898C218.571 116.874 210.223 132.849 201.853 148.825" stroke="#4C4AC7" stroke-opacity="0.22" stroke-width="2" stroke-linecap="round" stroke-linejoin="round"/>
<path d="M515.466 268.643V314.447C506.639 318.898 500.39 325.037 492.658 317.711" stroke="#4C4AC7" stroke-opacity="0.22" stroke-width="2" stroke-linecap="round" stroke-linejoin="round"/>
<path d="M205.274 56.3942C204.065 53.3816 202.856 50.369 201.032 45.7361C199.367 49.479 198.135 52.2861 196.766 55.3671C195.968 54.7053 194.965 53.7924 193.847 53.0164C193.733 52.9251 193.072 53.6326 192.342 54.2488C192.136 55.2074 191.247 56.9191 191.703 57.444C200.553 67.6228 199.8 78.0755 194.052 89.5551C189.491 98.6841 186.845 108.772 182.283 117.901C179.683 123.081 174.893 127.144 171.107 131.708" stroke="#4C4AC7" stroke-opacity="0.22" stroke-width="2" stroke-linecap="round" stroke-linejoin="round"/>
<path d="M197.291 185.341C199.184 194.082 201.305 202.8 202.925 211.587C204.544 220.35 201.625 227.38 193.87 232.127" stroke="#4C4AC7" stroke-opacity="0.22" stroke-width="2" stroke-linecap="round" stroke-linejoin="round"/>
<path d="M114.041 414.706C111.007 408.613 107.655 402.656 105.009 396.403C102.591 390.652 100.926 384.581 99.1699 379.354C109.821 374.402 119.081 370.111 130.417 364.839C133.04 366.483 137.784 369.495 142.528 372.485" stroke="#4C4AC7" stroke-opacity="0.22" stroke-width="2" stroke-linecap="round" stroke-linejoin="round"/>
<path d="M343.264 48.4064C346.594 45.622 349.947 42.8377 353.893 39.5513C366.597 52.4688 371.181 68.8553 376.222 84.9679C376.473 85.7895 374.83 87.2045 374.078 88.3456" stroke="#4C4AC7" stroke-opacity="0.22" stroke-width="2" stroke-linecap="round" stroke-linejoin="round"/>
<path d="M183.606 253.808C182.716 256.889 181.85 259.993 180.664 264.078H145.972" stroke="#4C4AC7" stroke-opacity="0.22" stroke-width="2" stroke-linecap="round" stroke-linejoin="round"/>
<path d="M193.87 187.623C196.196 202.138 194.668 216.562 192.729 230.986" stroke="#4C4AC7" stroke-opacity="0.22" stroke-width="2" stroke-linecap="round" stroke-linejoin="round"/>
<path d="M133.428 375.908C121.796 379.172 117.805 387.319 118.557 398.731C118.854 403.272 118.603 407.86 118.603 412.424" stroke="#4C4AC7" stroke-opacity="0.22" stroke-width="2" stroke-linecap="round" stroke-linejoin="round"/>
<path d="M291.945 128.285C290.417 127.532 287.521 126.276 287.589 126.071C290.486 117.627 276.869 111.054 285.057 101.993C291.01 95.4205 298.56 95.9911 307.911 104.321" stroke="#4C4AC7" stroke-opacity="0.22" stroke-width="2" stroke-linecap="round" stroke-linejoin="round"/>
<path d="M344.404 65.5232C346.616 83.4388 340.572 98.9809 330.719 113.45" stroke="#4C4AC7" stroke-opacity="0.22" stroke-width="2" stroke-linecap="round" stroke-linejoin="round"/>
<path d="M448.182 155.672C451.831 158.547 455.48 161.446 458.947 164.185C467.09 157.84 474.571 151.975 482.325 145.949C483.694 156.79 480.478 159.255 467.569 157.977" stroke="#4C4AC7" stroke-opacity="0.22" stroke-width="2" stroke-linecap="round" stroke-linejoin="round"/>
<path d="M535.993 192.188C531.91 197.3 527.828 202.389 523.745 207.502C527.714 215.9 531.295 223.432 534.853 230.986" stroke="#4C4AC7" stroke-opacity="0.22" stroke-width="2" stroke-linecap="round" stroke-linejoin="round"/>
<path d="M209.836 56.3942C210.337 52.8567 210.839 49.3192 211.341 45.7817H215.424C216.085 52.7654 216.769 59.7262 217.453 66.9838C221.559 67.6684 225.391 68.3075 229.2 68.9465" stroke="#4C4AC7" stroke-opacity="0.22" stroke-width="2" stroke-linecap="round" stroke-linejoin="round"/>
<path d="M309.051 113.45C312.427 114.728 315.802 115.983 319.269 117.307C320.546 121.894 321.961 126.87 323.375 131.982C322.371 135.405 321.254 139.217 320.045 143.393C324.082 146.406 327.959 149.327 331.859 152.248" stroke="#4C4AC7" stroke-opacity="0.22" stroke-width="2" stroke-linecap="round" stroke-linejoin="round"/>
<path d="M353.527 58.6765C355.968 69.5628 360.187 80.0383 351.611 90.9246C348.213 95.238 348.966 102.815 347.825 108.886" stroke="#4C4AC7" stroke-opacity="0.22" stroke-width="2" stroke-linecap="round" stroke-linejoin="round"/>
<path d="M444.76 112.309C440.814 103.728 448.273 102.883 452.789 102.336C459.494 101.537 466.428 102.792 473.271 103.18" stroke="#4C4AC7" stroke-opacity="0.22" stroke-width="2" stroke-linecap="round" stroke-linejoin="round"/>
<path d="M157.377 148.825C160.205 144.877 163.033 140.928 166.774 135.702C169.328 142.138 172.362 147.068 173.046 152.294C173.799 158.068 176.331 159.506 181.303 159.095" stroke="#4C4AC7" stroke-opacity="0.22" stroke-width="2" stroke-linecap="round" stroke-linejoin="round"/>
<path d="M502.921 137.414C501.302 143.576 499.682 149.761 497.744 157.087C498.61 159.346 500.002 163.043 501.963 168.224H513.162" stroke="#4C4AC7" stroke-opacity="0.22" stroke-width="2" stroke-linecap="round" stroke-linejoin="round"/>
<path d="M205.274 121.438C199.96 129.038 194.919 136.866 189.24 144.192C182.374 153.024 182.397 162.062 187.027 171.648" stroke="#4C4AC7" stroke-opacity="0.22" stroke-width="2" stroke-linecap="round" stroke-linejoin="round"/>
<path d="M290.805 185.341C297.944 188.924 305.106 192.484 313.248 196.569C309.644 197.482 306.497 198.258 303.349 199.034" stroke="#4C4AC7" stroke-opacity="0.22" stroke-width="2" stroke-linecap="round" stroke-linejoin="round"/>
<path d="M351.247 111.168C358.91 116.942 366.551 122.716 374.853 128.992C377.453 115.04 377.187 106.444 374.055 103.203C374.99 99.0721 375.948 94.9184 377.339 88.8249C369.197 88.2543 361.944 87.7294 354.668 87.2273" stroke="#4C4AC7" stroke-opacity="0.22" stroke-width="2" stroke-linecap="round" stroke-linejoin="round"/>
<path d="M305.63 160.236C306.816 168.886 303.372 176.144 298.787 183.059" stroke="#4C4AC7" stroke-opacity="0.22" stroke-width="2" stroke-linecap="round" stroke-linejoin="round"/>
<path d="M263.435 144.261C266.104 141.225 268.795 138.19 271.236 135.428C286.152 131.389 298.446 133.717 305.63 148.825" stroke="#4C4AC7" stroke-opacity="0.22" stroke-width="2" stroke-linecap="round" stroke-linejoin="round"/>
<path d="M393.442 188.764C401.721 196.798 401.653 197.277 389.633 205.835C390.203 199.034 390.682 193.329 391.161 187.623" stroke="#4C4AC7" stroke-opacity="0.22" stroke-width="2" stroke-linecap="round" stroke-linejoin="round"/>
<path d="M445.901 124.862C448.729 119.795 451.535 114.728 454.066 110.187C460.703 110.552 466.428 110.871 472.13 111.168" stroke="#4C4AC7" stroke-opacity="0.22" stroke-width="2" stroke-linecap="round" stroke-linejoin="round"/>
<path d="M314.753 253.808C325.884 254.881 319.224 264.877 322.736 269.784" stroke="#4C4AC7" stroke-opacity="0.22" stroke-width="2" stroke-linecap="round" stroke-linejoin="round"/>
<path d="M518.887 143.119C517.359 149.213 515.854 155.284 514.326 161.377" stroke="#4C4AC7" stroke-opacity="0.22" stroke-width="2" stroke-linecap="round" stroke-linejoin="round"/>
<path d="M226.942 82.64C227.695 88.3456 228.47 94.0512 229.223 99.7568" stroke="#4C4AC7" stroke-opacity="0.22" stroke-width="2" stroke-linecap="round" stroke-linejoin="round"/>
<path d="M508.623 131.708C515.831 130.476 518.111 132.758 518.841 141.545C515.215 137.688 511.337 133.557 506.753 128.65C502.032 137.916 505.955 137.026 510.904 135.131" stroke="#4C4AC7" stroke-opacity="0.22" stroke-width="2" stroke-linecap="round" stroke-linejoin="round"/>
<path d="M475.551 126.003C473.27 131.708 470.693 137.323 468.8 143.142C467.5 147.159 467.181 151.473 466.428 155.672" stroke="#4C4AC7" stroke-opacity="0.22" stroke-width="2" stroke-linecap="round" stroke-linejoin="round"/>
<path d="M198.431 136.273V151.084C199.252 151.518 200.096 151.929 200.917 152.363C196.287 157.269 191.657 162.176 187.027 167.06" stroke="#4C4AC7" stroke-opacity="0.22" stroke-width="2" stroke-linecap="round" stroke-linejoin="round"/>
<path d="M338.702 47.2653C337.539 47.5163 336.376 47.7902 333.479 48.4292C336.262 51.2135 338.178 53.1306 340.071 55.0249C340.96 54.5 341.85 53.9522 342.739 53.4273C341.781 50.9853 340.823 48.5661 339.843 46.1241" stroke="#4C4AC7" stroke-opacity="0.22" stroke-width="2" stroke-linecap="round" stroke-linejoin="round"/>
<path d="M449.322 144.26C452.036 146.086 454.75 147.912 457.807 149.943C459.631 149.281 461.889 148.483 464.147 147.684" stroke="#4C4AC7" stroke-opacity="0.22" stroke-width="2" stroke-linecap="round" stroke-linejoin="round"/>
<path d="M350.106 104.321C357.701 109.137 365 117.033 374.055 106.604" stroke="#4C4AC7" stroke-opacity="0.22" stroke-width="2" stroke-linecap="round" stroke-linejoin="round"/>
<path d="M296.507 305.159C296.895 309.335 297.237 313.535 297.693 317.711C297.739 318.122 298.4 318.784 298.788 318.784C299.176 318.784 299.54 318.099 299.928 317.734" stroke="#4C4AC7" stroke-opacity="0.22" stroke-width="2" stroke-linecap="round" stroke-linejoin="round"/>
<path d="M385.459 92.91C390.157 95.9454 394.856 98.9808 400.056 102.336C402.565 99.3231 404.276 97.2463 406.1 95.0325C407.583 96.2421 409.065 97.4289 410.548 98.6156" stroke="#4C4AC7" stroke-opacity="0.22" stroke-width="2" stroke-linecap="round" stroke-linejoin="round"/>
<path d="M350.106 44.983C351.452 48.977 352.775 52.9709 354.805 58.996C350.859 56.8051 349.354 55.9834 347.871 55.1618C347.073 57.9233 346.297 60.5707 345.545 63.241" stroke="#4C4AC7" stroke-opacity="0.22" stroke-width="2" stroke-linecap="round" stroke-linejoin="round"/>
<path d="M280.541 284.618C284.647 288.133 288.752 291.648 292.675 294.98C294.591 294.501 296.119 294.113 297.647 293.747" stroke="#4C4AC7" stroke-opacity="0.22" stroke-width="2" stroke-linecap="round" stroke-linejoin="round"/>
<path d="M296.507 192.188C298.788 194.858 302.163 197.186 303.076 200.267C304.216 204.101 303.349 208.551 303.349 212.728" stroke="#4C4AC7" stroke-opacity="0.22" stroke-width="2" stroke-linecap="round" stroke-linejoin="round"/>
<path d="M532.572 244.679C526.87 247.349 521.168 249.997 515.466 252.667" stroke="#4C4AC7" stroke-opacity="0.22" stroke-width="2" stroke-linecap="round" stroke-linejoin="round"/>
<path d="M528.01 157.954L517.747 164.801" stroke="#4C4AC7" stroke-opacity="0.22" stroke-width="2" stroke-linecap="round" stroke-linejoin="round"/>
<path d="M476.692 122.579C480.113 129.152 483.534 129.175 487.389 121.758C482.052 120.685 476.965 119.658 471.97 118.654C473.476 113.108 474.502 109.297 476.578 101.697C478.79 105.622 480.022 107.813 481.253 110.004" stroke="#4C4AC7" stroke-opacity="0.22" stroke-width="2" stroke-linecap="round" stroke-linejoin="round"/>
<path d="M486.955 151.107C489.145 154.941 491.357 158.798 493.729 162.952C492.589 164.732 491.243 166.855 488.78 170.734C493.022 170.118 495.691 169.753 498.359 169.365" stroke="#4C4AC7" stroke-opacity="0.22" stroke-width="2" stroke-linecap="round" stroke-linejoin="round"/>
<path d="M451.603 112.309C445.216 113.1 442.555 117.284 443.62 124.861" stroke="#4C4AC7" stroke-opacity="0.22" stroke-width="2" stroke-linecap="round" stroke-linejoin="round"/>
<path d="M307.911 284.618C302.734 289.708 298.035 295.094 297.647 302.876" stroke="#4C4AC7" stroke-opacity="0.22" stroke-width="2" stroke-linecap="round" stroke-linejoin="round"/>
<path d="M260.014 141.978C257.345 145.79 254.699 149.578 252.031 153.389" stroke="#4C4AC7" stroke-opacity="0.22" stroke-width="2" stroke-linecap="round" stroke-linejoin="round"/>
<path d="M315.894 173.93C319.315 174.683 322.736 175.459 326.158 176.212" stroke="#4C4AC7" stroke-opacity="0.22" stroke-width="2" stroke-linecap="round" stroke-linejoin="round"/>
<path d="M426.514 51.8298C430.961 47.8815 435.409 43.9332 441.453 38.5471C440.837 44.1843 440.427 47.9271 439.948 52.3775C443.255 51.0766 445.148 50.3007 447.041 49.5475" stroke="#4C4AC7" stroke-opacity="0.22" stroke-width="2" stroke-linecap="round" stroke-linejoin="round"/>
<path d="M531.432 156.813C535.309 158.091 539.186 159.369 542.813 160.579C542.357 163.272 542.015 165.166 541.695 167.083" stroke="#4C4AC7" stroke-opacity="0.22" stroke-width="2" stroke-linecap="round" stroke-linejoin="round"/>
<path d="M321.596 118.015L325.017 128.285" stroke="#4C4AC7" stroke-opacity="0.22" stroke-width="2" stroke-linecap="round" stroke-linejoin="round"/>
<path d="M318.175 115.733C316.145 111.807 314.092 107.859 311.971 103.728C306.315 105.599 301.411 107.243 296.507 108.886" stroke="#4C4AC7" stroke-opacity="0.22" stroke-width="2" stroke-linecap="round" stroke-linejoin="round"/>
<path d="M521.168 54.1119C523.768 57.2158 526.345 60.3196 527.44 61.6205V76.9344C528.284 77.0713 529.128 77.2082 529.995 77.3223C530.474 74.9032 530.953 72.484 531.432 70.0876" stroke="#4C4AC7" stroke-opacity="0.22" stroke-width="2" stroke-linecap="round" stroke-linejoin="round"/>
<path d="M313.613 111.168C309.849 112.423 306.086 113.678 301.57 115.185C299.814 117.946 297.579 121.392 295.366 124.861" stroke="#4C4AC7" stroke-opacity="0.22" stroke-width="2" stroke-linecap="round" stroke-linejoin="round"/>
<path d="M445.901 129.426V149.966" stroke="#4C4AC7" stroke-opacity="0.22" stroke-width="2" stroke-linecap="round" stroke-linejoin="round"/>
<path d="M512.045 47.2653C513.253 50.0724 514.439 52.8568 516.424 57.4669C518.841 53.4045 520.233 51.0766 522.171 47.813C522.628 49.7073 523.038 51.3277 523.449 52.9709" stroke="#4C4AC7" stroke-opacity="0.22" stroke-width="2" stroke-linecap="round" stroke-linejoin="round"/>
<path d="M318.175 146.543C317.422 148.825 316.647 151.107 315.894 153.389" stroke="#4C4AC7" stroke-opacity="0.22" stroke-width="2" stroke-linecap="round" stroke-linejoin="round"/>
<path d="M404.846 116.874C402.953 117.627 401.037 118.403 399.144 119.156" stroke="#4C4AC7" stroke-opacity="0.22" stroke-width="2" stroke-linecap="round" stroke-linejoin="round"/>
<path d="M475.551 114.591V119.156" stroke="#4C4AC7" stroke-opacity="0.22" stroke-width="2" stroke-linecap="round" stroke-linejoin="round"/>
<path d="M444.76 59.8176C445.809 60.6849 446.859 61.575 448.615 63.0356C446.973 63.8572 445.308 64.7016 443.62 65.5232" stroke="#4C4AC7" stroke-opacity="0.22" stroke-width="2" stroke-linecap="round" stroke-linejoin="round"/>
<path d="M217.818 97.4746C215.538 101.651 213.28 105.85 210.953 110.027C210.702 110.483 210.2 110.803 209.835 111.168C209.448 110.78 209.083 110.415 208.695 110.027" stroke="#4C4AC7" stroke-opacity="0.22" stroke-width="2" stroke-linecap="round" stroke-linejoin="round"/>
<path d="M444.76 127.144V135.132" stroke="#4C4AC7" stroke-opacity="0.22" stroke-width="2" stroke-linecap="round" stroke-linejoin="round"/>
<path d="M288.524 119.156C290.713 112.857 294.956 115.824 298.788 116.874" stroke="#4C4AC7" stroke-opacity="0.22" stroke-width="2" stroke-linecap="round" stroke-linejoin="round"/>
<path d="M299.928 310.864V317.711" stroke="#4C4AC7" stroke-opacity="0.22" stroke-width="2" stroke-linecap="round" stroke-linejoin="round"/>
<path d="M195.01 180.776V185.341" stroke="#4C4AC7" stroke-opacity="0.22" stroke-width="2" stroke-linecap="round" stroke-linejoin="round"/>
<path d="M206.415 110.027V114.591" stroke="#4C4AC7" stroke-opacity="0.22" stroke-width="2" stroke-linecap="round" stroke-linejoin="round"/>
<path d="M209.835 112.309C208.695 113.062 207.555 113.838 206.414 114.591" stroke="#4C4AC7" stroke-opacity="0.22" stroke-width="2" stroke-linecap="round" stroke-linejoin="round"/>
<path d="M204.134 114.591V119.156" stroke="#4C4AC7" stroke-opacity="0.22" stroke-width="2" stroke-linecap="round" stroke-linejoin="round"/>
<path d="M207.555 116.874C206.414 117.627 205.274 118.403 204.133 119.156" stroke="#4C4AC7" stroke-opacity="0.22" stroke-width="2" stroke-linecap="round" stroke-linejoin="round"/>
</g>
</svg>
