<svg width="268" height="266" viewBox="0 0 268 266" fill="none" xmlns="http://www.w3.org/2000/svg">
<g opacity="0.23" clip-path="url(#clip0_2_3087)">
<path d="M140.791 227.86C145.234 229.875 149.788 231.707 154.085 233.978C158.73 236.433 159.48 239.529 157.139 244.237C153.39 251.784 150.629 254.019 143.936 254.587C138.871 246.307 140.553 236.909 140.078 227.328C136.841 226.339 133.275 225.497 129.892 224.159C117.859 219.396 112.245 210.713 112.336 196.9C112.464 177.5 104.546 161.838 89.7337 147.64C88.1427 151.469 85.9117 154.437 85.8203 157.459C85.2899 175.65 84.9242 193.878 85.1985 212.069C85.3265 220.166 86.8077 228.299 88.1244 236.341C91.2149 255.247 99.4989 261.145 117.749 263.051C139.2 265.267 160.595 263.893 181.955 261.823C197.718 260.303 213.463 258.746 229.19 256.895C233.323 256.419 237.346 254.807 240.93 253.854C246.05 247.223 240.217 242.753 238.9 237.569" stroke="#4C4AC7" stroke-opacity="0.22" stroke-width="2" stroke-linecap="round" stroke-linejoin="round"/>
<path d="M257.096 121.059C258.303 127.324 260.351 133.571 260.589 139.873C261.539 165.135 262.454 190.434 262.326 215.714C262.271 227.054 259.747 238.375 258.303 249.696C257.589 255.338 260.588 259.094 266.148 258.013C270.774 257.115 275.255 254.899 279.461 252.645C284.051 250.209 284.069 245.153 282.899 241.287C281.527 236.744 276.809 235.242 272.237 235.242C269.732 235.242 267.245 236.176 264.849 237.367C269.22 239.987 273.444 240.17 277.687 237.569" stroke="#4C4AC7" stroke-opacity="0.22" stroke-width="2" stroke-linecap="round" stroke-linejoin="round"/>
<path d="M65.083 107.1C82.035 104.884 99.0052 102.704 115.957 100.395C120.419 99.791 124.826 98.7468 130.916 97.5743C128.904 102.63 127.24 106.771 125.137 112.046C116.89 109.482 109.026 107.045 101.584 104.719C98.6761 108.896 99.5538 111.46 102.041 113.768C107.289 118.623 112.282 123.789 117.841 128.259C128.209 136.612 131.208 148.263 132.891 160.5C135.104 176.658 137.17 192.834 138.889 209.046C139.511 214.853 138.98 220.77 138.98 226.632" stroke="#4C4AC7" stroke-opacity="0.22" stroke-width="2" stroke-linecap="round" stroke-linejoin="round"/>
<path d="M257.096 123.478C256.693 134.597 256.163 145.717 255.925 156.855C255.596 172.225 255.432 187.594 255.304 202.964C255.23 212.325 254.316 221.43 249.251 229.673C246.855 233.557 244.88 237.752 239.522 238.155" stroke="#4C4AC7" stroke-opacity="0.22" stroke-width="2" stroke-linecap="round" stroke-linejoin="round"/>
<path d="M234.091 3.3226C240.546 -7.19256 247.148 -17.6344 253.402 -28.2778C255.633 -32.0699 257.425 -36.2283 258.851 -40.3867C262.381 -50.5721 257.736 -58.7791 247.404 -60.9591C244.423 -61.5819 241.296 -62.4063 238.333 -62.0949C226.465 -60.8858 221.052 -52.8071 223.832 -40.3684C226.41 -28.9007 232.701 -20.3823 244.368 -16.6818" stroke="#4C4AC7" stroke-opacity="0.22" stroke-width="2" stroke-linecap="round" stroke-linejoin="round"/>
<path d="M86.2779 48.8456C98.7312 38.6052 102.133 22.8508 94.763 9.40456C89.7158 0.190064 83.6994 -0.872443 75.3606 5.74075C63.8764 14.8637 63.8581 26.4963 71.2826 36.5901C74.6108 41.1149 79.6031 44.394 83.8457 48.241" stroke="#4C4AC7" stroke-opacity="0.22" stroke-width="2" stroke-linecap="round" stroke-linejoin="round"/>
<path d="M271.03 43.991C281.929 36.4985 292.755 28.8961 303.764 21.5684C315.577 13.7279 327.628 6.25368 339.424 -1.60521C341.874 -3.23561 343.648 -5.87356 346.153 -8.47487C339.899 -12.7799 334.925 -9.5557 331.103 -7.37572C317.863 0.15342 305.026 8.41533 292.243 16.7322C283.136 22.6676 274.377 29.1342 266.276 34.7948C268.964 41.5179 271.506 47.9113 274.048 54.2863" stroke="#4C4AC7" stroke-opacity="0.22" stroke-width="2" stroke-linecap="round" stroke-linejoin="round"/>
<path d="M22.0723 110.123C19.8596 101.421 17.3725 92.7747 15.5804 83.9999C15.0867 81.6001 15.8182 78.0828 17.3725 76.2692C26.388 65.754 36.775 56.7594 49.9964 52.0331C54.3121 50.4943 59.213 50.3477 63.8762 50.1462C70.7338 49.8531 77.5914 50.0729 87.0457 50.0729C91.1602 52.2346 98.0544 55.3122 104.382 59.2874C110.343 63.0428 116.378 67.3844 116.524 75.5548C116.707 86.6561 114.019 89.807 104.455 91.9137C94.5982 94.0754 84.6318 95.779 74.8117 98.1056C70.5509 99.1131 66.5461 101.201 62.3035 102.85C67.1495 115.6 79.7858 115.582 88.8195 121.737C79.292 122.928 69.7828 124.119 60.2554 125.309" stroke="#4C4AC7" stroke-opacity="0.22" stroke-width="2" stroke-linecap="round" stroke-linejoin="round"/>
<path d="M132.324 96.7866C139.602 95.9806 146.899 95.3944 154.122 94.2952C163.247 92.9213 172.318 91.2176 181.37 89.4223C183.271 89.056 184.972 87.7187 187.386 86.5096C173.031 78.4675 130.77 87.1141 130.898 97.8308C131.574 96.2737 132.233 94.6982 132.909 93.1411" stroke="#4C4AC7" stroke-opacity="0.22" stroke-width="2" stroke-linecap="round" stroke-linejoin="round"/>
<path d="M63.2544 102.246C61.9377 97.1347 65.1745 94.4418 68.7039 91.9321C72.727 89.0743 76.7867 86.2715 80.8098 83.4137C81.9619 82.5893 83.0408 81.6551 84.1563 80.7757C84.1015 80.2628 84.0649 79.7499 84.01 79.2186C81.3218 78.9988 78.652 78.7423 75.9638 78.5775C66.2169 78.0096 57.9695 81.3619 51.1301 88.2866C50.929 88.4881 50.7278 88.6896 50.5267 88.8911C40.8529 98.0873 35.9703 98.7834 23.8461 93.1961C20.847 91.8221 17.5188 91.181 14.6295 90.3017C2.52353 98.5453 0.767984 110.471 2.26751 122.855C3.5476 133.37 4.04134 144.801 15.5438 152.312C21.5053 148.227 27.5583 144.086 34.7451 139.159C36.4092 142.493 38.7133 145.57 39.4997 148.996C41.877 159.236 43.6325 169.605 45.7355 179.9C45.9184 180.798 46.8876 181.531 47.491 182.337" stroke="#4C4AC7" stroke-opacity="0.22" stroke-width="2" stroke-linecap="round" stroke-linejoin="round"/>
<path d="M229.848 55.5137C228.842 62.8047 228.623 70.3156 226.593 77.2951C224.618 84.0732 221.418 90.7413 217.578 96.6767C212.457 104.572 205.234 103.894 200.845 95.5409C196.383 87.0592 195.487 77.6432 194.755 68.2638C194.591 66.0472 194.902 63.794 194.701 61.5957C194.024 54.3596 196.822 49.3952 203.369 47.1786C212.384 46.9954 221.272 50.421 229.446 45.0169C226.886 20.8907 229.062 -3.29052 222.899 -26.5741C221.985 -26.6657 221.07 -26.7756 220.156 -26.8672C218.565 -22.4706 216.188 -18.1839 215.511 -13.6408C213.829 -2.5944 212.476 8.56192 211.963 19.7182C211.762 24.0965 213.957 28.6763 215.475 33.0179C215.987 34.4834 217.779 35.491 219.443 37.1397C221.71 34.9964 223.374 33.4209 225.057 31.8272" stroke="#4C4AC7" stroke-opacity="0.22" stroke-width="2" stroke-linecap="round" stroke-linejoin="round"/>
<path d="M194.097 57.3273C187.295 67.2379 187.35 85.2272 196.091 96.0172C200.534 101.495 206.624 105.726 212.329 110.031C216.645 113.274 221.747 113.512 226.794 111.332" stroke="#4C4AC7" stroke-opacity="0.22" stroke-width="2" stroke-linecap="round" stroke-linejoin="round"/>
<path d="M272.256 54.9092C273.518 57.1991 274.798 59.5073 275.785 61.3025C274.706 63.4276 273.938 64.5816 273.499 65.8457C269.641 76.7638 261.869 82.4611 250.458 83.4503C246.819 83.7617 243.198 84.3296 239.559 84.6227C236.011 84.9158 233.341 86.9126 233.03 90.1185C232.116 99.3696 226.063 107.65 227.965 117.432C228.221 118.715 227.453 120.345 226.813 121.646C222.552 130.365 222.625 139.763 223.375 148.959C224.308 160.336 226.447 171.62 228.056 182.96" stroke="#4C4AC7" stroke-opacity="0.22" stroke-width="2" stroke-linecap="round" stroke-linejoin="round"/>
<path d="M275.273 64.0138C278.071 72.1475 273.828 81.3986 265.563 84.5861C261.649 86.1066 257.535 87.1874 253.457 88.25C248.72 89.459 244.825 91.3642 243.746 96.7683C241.936 105.873 234.274 110.581 228.623 116.791" stroke="#4C4AC7" stroke-opacity="0.22" stroke-width="2" stroke-linecap="round" stroke-linejoin="round"/>
<path d="M246.8 -16.7001C254.682 -14.8865 262.527 -12.963 270.427 -11.2776C273.609 -10.5998 276.955 -10.7464 280.101 -9.95865C288.805 -7.77868 292.572 -1.33036 294.072 6.96819C294.474 9.22144 295.261 11.4197 295.864 13.6546" stroke="#4C4AC7" stroke-opacity="0.22" stroke-width="2" stroke-linecap="round" stroke-linejoin="round"/>
<path d="M226.812 124.687C227.416 131.758 228.312 138.829 228.568 145.918C229.007 158.247 229.044 170.594 229.245 182.941" stroke="#4C4AC7" stroke-opacity="0.22" stroke-width="2" stroke-linecap="round" stroke-linejoin="round"/>
<path d="M297.089 26.9908C297.291 34.2818 297.492 41.5545 297.693 48.8272C297.803 53.0223 295.425 54.7076 291.64 54.2313C287.361 53.6818 282.935 53.2421 278.967 51.7216C274.596 50.0546 270.939 50.4759 267.41 53.1139C261.302 57.6936 255.285 62.4016 249.214 67.0364C247.843 68.0989 246.526 69.3995 244.953 70.0041C241.936 71.1582 238.443 73.1549 235.974 69.4178C233.707 65.9739 231.988 62.1085 234.694 57.9501C237.127 54.213 242.174 54.7076 246.8 59.1775C247.312 59.6721 247.733 60.2949 248.885 61.6689C247.386 63.171 245.959 64.5999 244.551 66.0105C243.893 65.7723 243.234 65.5525 242.558 65.3144V57.3456" stroke="#4C4AC7" stroke-opacity="0.22" stroke-width="2" stroke-linecap="round" stroke-linejoin="round"/>
<path d="M51.1486 198.732C53.5808 199.74 56.9456 200.088 58.2256 201.901C60.731 205.474 62.5962 209.705 63.73 213.937C64.8455 218.132 63.4008 221.851 58.2988 223.207C52.575 220.77 50.2343 216.374 50.5269 210.255C50.6 208.844 50.1611 207.434 49.96 206.005" stroke="#4C4AC7" stroke-opacity="0.22" stroke-width="2" stroke-linecap="round" stroke-linejoin="round"/>
<path d="M55.391 126.518C45.4429 131.007 43.6142 133.754 44.5468 144.709C45.516 156.049 46.9241 167.37 48.1128 178.691C48.3871 181.311 48.2042 184.022 48.7894 186.568C49.9597 191.569 53.5805 192.705 58.4083 192.797C63.5469 192.907 65.6316 189.957 66.1619 185.964C67.0397 179.351 67.1494 172.628 67.442 165.959C67.4786 164.97 66.6923 163.944 66.29 162.937" stroke="#4C4AC7" stroke-opacity="0.22" stroke-width="2" stroke-linecap="round" stroke-linejoin="round"/>
<path d="M66.2898 159.273C63.5651 155.976 60.5843 155.041 56.5429 157.368C53.3427 159.218 53.5804 161.563 54.824 164.091C56.4149 167.333 59.7248 167.388 61.9559 165.795C66.5276 162.515 68.7769 157.459 69.9289 151.982C70.697 148.336 71.7576 144.728 72.3062 141.045C73.4217 133.553 70.441 128.24 60.2369 126.482" stroke="#4C4AC7" stroke-opacity="0.22" stroke-width="2" stroke-linecap="round" stroke-linejoin="round"/>
<path d="M22.0724 114.977C22.0541 120.785 23.9011 124.009 29.3506 124.522C36.5556 125.199 43.8704 124.65 51.1486 124.723C52.5567 124.723 53.9831 125.108 55.3912 125.309" stroke="#4C4AC7" stroke-opacity="0.22" stroke-width="2" stroke-linecap="round" stroke-linejoin="round"/>
<path d="M228.641 184.169C229.647 190.635 231.074 197.084 231.567 203.587C232.335 213.681 232.207 223.83 232.994 233.905C233.341 238.375 234.566 242.698 229.208 244.787C225.057 246.399 220.449 243.944 217.121 238.76C221.125 233.429 225.971 231.872 232.262 233.905" stroke="#4C4AC7" stroke-opacity="0.22" stroke-width="2" stroke-linecap="round" stroke-linejoin="round"/>
<path d="M242.558 56.1182C249.543 49.157 256.529 42.1957 263.661 35.0879C258.741 27.9984 250.403 24.0049 244.496 27.7969C240.18 30.5814 237.09 35.2711 233.451 39.1181" stroke="#4C4AC7" stroke-opacity="0.22" stroke-width="2" stroke-linecap="round" stroke-linejoin="round"/>
<path d="M231.659 6.05225C232.061 12.0243 232.701 17.978 232.793 23.95C232.884 29.1892 232.39 34.4468 232.134 40.0891C231.604 44.5406 231.019 49.4135 230.434 54.2864" stroke="#4C4AC7" stroke-opacity="0.22" stroke-width="2" stroke-linecap="round" stroke-linejoin="round"/>
<path d="M226.813 27.5955L225.661 34.7765C224.106 43.0018 216.316 40.9134 211.068 43.3682C209.019 44.3208 207.026 45.3833 205.015 46.3908" stroke="#4C4AC7" stroke-opacity="0.22" stroke-width="2" stroke-linecap="round" stroke-linejoin="round"/>
<path d="M48.7161 206.005C48.515 210.255 47.9846 214.523 48.2041 218.737C48.4235 223.207 49.3196 227.64 49.9413 232.091" stroke="#4C4AC7" stroke-opacity="0.22" stroke-width="2" stroke-linecap="round" stroke-linejoin="round"/>
<path d="M226.812 80.9956C227.215 89.0926 227.617 97.1714 228.019 105.268" stroke="#4C4AC7" stroke-opacity="0.22" stroke-width="2" stroke-linecap="round" stroke-linejoin="round"/>
<path d="M234.091 219.36C235.7 225.423 237.328 231.487 238.937 237.569" stroke="#4C4AC7" stroke-opacity="0.22" stroke-width="2" stroke-linecap="round" stroke-linejoin="round"/>
<path d="M143.223 90.1001C143.497 92.9212 143.79 95.7424 144.046 98.307C137.938 106.404 135.341 105.067 130.514 101.018" stroke="#4C4AC7" stroke-opacity="0.22" stroke-width="2" stroke-linecap="round" stroke-linejoin="round"/>
<path d="M232.262 -5.15906C232.262 -1.71507 232.262 1.7106 232.28 5.15459C232.28 5.15459 232.701 5.22787 232.847 5.15459C233.085 5.00804 233.268 4.76989 233.469 4.56838" stroke="#4C4AC7" stroke-opacity="0.22" stroke-width="2" stroke-linecap="round" stroke-linejoin="round"/>
<path d="M228.02 47.0137C228.422 49.4318 228.824 51.8682 229.226 54.3047" stroke="#4C4AC7" stroke-opacity="0.22" stroke-width="2" stroke-linecap="round" stroke-linejoin="round"/>
<path d="M49.9414 191.441C49.7402 195.893 49.539 200.344 49.3379 204.796" stroke="#4C4AC7" stroke-opacity="0.22" stroke-width="2" stroke-linecap="round" stroke-linejoin="round"/>
<path d="M270.427 45.8046C269.439 46.2442 268.452 46.6656 267.464 47.1052C267.464 47.8563 267.464 48.6074 267.464 49.3585C268.452 49.7981 269.439 50.2195 270.427 50.6591" stroke="#4C4AC7" stroke-opacity="0.22" stroke-width="2" stroke-linecap="round" stroke-linejoin="round"/>
<path d="M25.1081 110.123C24.0658 110.654 23.0051 111.167 21.4873 111.937C23.316 114.446 24.9252 116.681 26.5528 118.916C31.4902 115.014 31.3805 114.135 25.7299 110.123" stroke="#4C4AC7" stroke-opacity="0.22" stroke-width="2" stroke-linecap="round" stroke-linejoin="round"/>
</g>
<defs>
<clipPath id="clip0_2_3087">
<rect width="348" height="330" fill="white" transform="translate(0 -64)"/>
</clipPath>
</defs>
</svg>
