<svg width="172" height="25" viewBox="0 0 172 25" fill="none" xmlns="http://www.w3.org/2000/svg">
<mask id="path-1-outside-1_2_6900" maskUnits="userSpaceOnUse" x="0" y="0" width="172" height="25" fill="black">
<rect fill="white" width="172" height="25"/>
<path d="M5.65234 19.9609H1V3.08594H13.1172V5.24219H5.65234V10.457H11.418V12.6016H5.65234V19.9609Z"/>
<path d="M19.2695 3.15625C19.2695 3.45312 19.2109 3.73438 19.0938 4C18.9844 4.26562 18.832 4.49609 18.6367 4.69141C18.4414 4.88672 18.2109 5.04297 17.9453 5.16016C17.6797 5.26953 17.3984 5.32422 17.1016 5.32422C16.8047 5.32422 16.5234 5.26953 16.2578 5.16016C16 5.04297 15.7734 4.88672 15.5781 4.69141C15.3828 4.49609 15.2266 4.26562 15.1094 4C15 3.73438 14.9453 3.45312 14.9453 3.15625C14.9453 2.85938 15 2.58203 15.1094 2.32422C15.2266 2.05859 15.3828 1.82812 15.5781 1.63281C15.7734 1.4375 16 1.28516 16.2578 1.17578C16.5234 1.05859 16.8047 1 17.1016 1C17.3984 1 17.6797 1.05859 17.9453 1.17578C18.2109 1.28516 18.4414 1.4375 18.6367 1.63281C18.832 1.82812 18.9844 2.05859 19.0938 2.32422C19.2109 2.58203 19.2695 2.85938 19.2695 3.15625ZM19.0938 19.9609H15.1211V6.4375H19.0938V19.9609Z"/>
<path d="M36.2617 12.2031C36.2617 13.1172 36.1484 14.0703 35.9219 15.0625C35.7031 16.0547 35.3945 17.0273 34.9961 17.9805C34.5977 18.9336 34.1211 19.8281 33.5664 20.6641C33.0117 21.5078 32.4023 22.2344 31.7383 22.8438L30.25 22.0352C30.4609 21.6445 30.6602 21.207 30.8477 20.7227C31.0352 20.2383 31.2031 19.7266 31.3516 19.1875C31.5078 18.6406 31.6445 18.0781 31.7617 17.5C31.8867 16.9219 31.9883 16.3516 32.0664 15.7891C32.1523 15.2188 32.2148 14.668 32.2539 14.1367C32.3008 13.5977 32.3242 13.0977 32.3242 12.6367C32.3242 12.332 32.3125 12.0078 32.2891 11.6641C32.2656 11.3125 32.2148 10.9648 32.1367 10.6211C32.0664 10.2695 31.9688 9.93359 31.8438 9.61328C31.7188 9.29297 31.5508 9.01172 31.3398 8.76953C31.1367 8.52734 30.8867 8.33203 30.5898 8.18359C30.3008 8.03516 29.957 7.96094 29.5586 7.96094C29.168 7.96094 28.8203 8.05078 28.5156 8.23047C28.2109 8.40234 27.9414 8.63281 27.707 8.92188C27.4727 9.20312 27.2695 9.52734 27.0977 9.89453C26.9336 10.2617 26.7969 10.6406 26.6875 11.0312C26.5859 11.4141 26.5117 11.793 26.4648 12.168C26.418 12.543 26.3945 12.8789 26.3945 13.1758V19.9609H22.4219V6.42578H23.9453L25.7617 9.57812C25.9805 9.05469 26.2539 8.57812 26.582 8.14844C26.9102 7.71875 27.2812 7.35156 27.6953 7.04688C28.1094 6.74219 28.5664 6.50781 29.0664 6.34375C29.5742 6.17969 30.1211 6.09766 30.707 6.09766C31.6445 6.09766 32.4609 6.25 33.1562 6.55469C33.8516 6.85938 34.4297 7.28516 34.8906 7.83203C35.3516 8.37109 35.6953 9.01562 35.9219 9.76562C36.1484 10.5078 36.2617 11.3203 36.2617 12.2031Z"/>
<path d="M52.5156 19.9609H50.9922L49.2344 17.0195C49.0625 17.5117 48.8242 17.957 48.5195 18.3555C48.2227 18.7539 47.875 19.0977 47.4766 19.3867C47.0859 19.668 46.6523 19.8867 46.1758 20.043C45.707 20.1992 45.2109 20.2773 44.6875 20.2773C43.6562 20.2773 42.7344 20.0938 41.9219 19.7266C41.1094 19.3594 40.4219 18.8594 39.8594 18.2266C39.2969 17.5859 38.8672 16.8359 38.5703 15.9766C38.2734 15.1172 38.125 14.1953 38.125 13.2109C38.125 12.2266 38.2734 11.3047 38.5703 10.4453C38.8672 9.58594 39.2969 8.83984 39.8594 8.20703C40.4219 7.57422 41.1094 7.07422 41.9219 6.70703C42.7344 6.33984 43.6562 6.15625 44.6875 6.15625C45.4766 6.15625 46.1992 6.30859 46.8555 6.61328C47.5195 6.91797 48.0859 7.39453 48.5547 8.04297V1.44531H52.5156V19.9609ZM48.5312 13.2109C48.5312 12.8984 48.5078 12.5547 48.4609 12.1797C48.4141 11.8047 48.3398 11.4258 48.2383 11.043C48.1367 10.6602 48.0039 10.2891 47.8398 9.92969C47.6758 9.57031 47.4727 9.25 47.2305 8.96875C46.9961 8.6875 46.7188 8.46484 46.3984 8.30078C46.0859 8.12891 45.7266 8.04297 45.3203 8.04297C44.875 8.04297 44.4883 8.125 44.1602 8.28906C43.832 8.44531 43.5508 8.66016 43.3164 8.93359C43.082 9.19922 42.8867 9.50781 42.7305 9.85938C42.582 10.2109 42.4648 10.5781 42.3789 10.9609C42.293 11.3438 42.2305 11.7305 42.1914 12.1211C42.1602 12.5039 42.1445 12.8672 42.1445 13.2109C42.1445 13.5547 42.1602 13.9219 42.1914 14.3125C42.2305 14.6953 42.293 15.0781 42.3789 15.4609C42.4648 15.8438 42.582 16.2148 42.7305 16.5742C42.8867 16.9258 43.082 17.2383 43.3164 17.5117C43.5508 17.7773 43.832 17.9922 44.1602 18.1562C44.4883 18.3125 44.875 18.3906 45.3203 18.3906C45.7656 18.3906 46.1562 18.3125 46.4922 18.1562C46.8281 18 47.1133 17.7891 47.3477 17.5234C47.5898 17.25 47.7852 16.9414 47.9336 16.5977C48.0898 16.2461 48.2109 15.8789 48.2969 15.4961C48.3828 15.1055 48.4414 14.7148 48.4727 14.3242C48.5117 13.9336 48.5312 13.5625 48.5312 13.2109Z"/>
<path d="M69.7773 3.08594L64.3164 12.8711V19.9609H59.6641V13.1289L54.1445 3.08594H58.8906L62.5586 11.5703L66.4961 3.08594H69.7773Z"/>
<path d="M84.2031 13.1641C84.2031 13.8672 84.1094 14.5273 83.9219 15.1445C83.7344 15.7617 83.4727 16.332 83.1367 16.8555C82.8086 17.3789 82.4102 17.8516 81.9414 18.2734C81.4727 18.6875 80.957 19.0391 80.3945 19.3281C79.8398 19.6172 79.2422 19.8398 78.6016 19.9961C77.9688 20.1523 77.3164 20.2305 76.6445 20.2305C75.9727 20.2305 75.3203 20.1523 74.6875 19.9961C74.0547 19.8398 73.457 19.6172 72.8945 19.3281C72.3398 19.0391 71.8281 18.6875 71.3594 18.2734C70.8906 17.8516 70.4883 17.3789 70.1523 16.8555C69.8242 16.332 69.5664 15.7617 69.3789 15.1445C69.1914 14.5195 69.0977 13.8594 69.0977 13.1641C69.0977 12.4688 69.1914 11.8125 69.3789 11.1953C69.5664 10.5703 69.8242 9.99609 70.1523 9.47266C70.4883 8.94922 70.8906 8.48047 71.3594 8.06641C71.8281 7.64453 72.3398 7.28906 72.8945 7C73.457 6.71094 74.0547 6.48828 74.6875 6.33203C75.3203 6.17578 75.9727 6.09766 76.6445 6.09766C77.3164 6.09766 77.9688 6.17578 78.6016 6.33203C79.2422 6.48828 79.8398 6.71094 80.3945 7C80.957 7.28906 81.4727 7.64453 81.9414 8.06641C82.4102 8.48047 82.8086 8.94922 83.1367 9.47266C83.4727 9.99609 83.7344 10.5703 83.9219 11.1953C84.1094 11.8125 84.2031 12.4688 84.2031 13.1641ZM80.1719 13.1641C80.1719 12.7891 80.1484 12.3945 80.1016 11.9805C80.0625 11.5586 79.9922 11.1484 79.8906 10.75C79.7891 10.3438 79.6484 9.95703 79.4688 9.58984C79.2969 9.21484 79.082 8.89062 78.8242 8.61719C78.5664 8.33594 78.2578 8.11328 77.8984 7.94922C77.5391 7.77734 77.1211 7.69141 76.6445 7.69141C76.1914 7.69141 75.7891 7.77734 75.4375 7.94922C75.0859 8.12109 74.7773 8.35156 74.5117 8.64062C74.2539 8.92188 74.0352 9.25 73.8555 9.625C73.6836 10 73.543 10.3906 73.4336 10.7969C73.3242 11.1953 73.2461 11.6016 73.1992 12.0156C73.1523 12.4219 73.1289 12.8047 73.1289 13.1641C73.1289 13.5234 73.1523 13.9102 73.1992 14.3242C73.2461 14.7305 73.3242 15.1367 73.4336 15.543C73.543 15.9492 73.6836 16.3398 73.8555 16.7148C74.0352 17.082 74.2539 17.4102 74.5117 17.6992C74.7773 17.9805 75.0859 18.207 75.4375 18.3789C75.7891 18.5508 76.1914 18.6367 76.6445 18.6367C77.1133 18.6367 77.5273 18.5547 77.8867 18.3906C78.2461 18.2188 78.5547 17.9922 78.8125 17.7109C79.0781 17.4297 79.2969 17.1055 79.4688 16.7383C79.6406 16.3711 79.7773 15.9844 79.8789 15.5781C79.9883 15.1719 80.0625 14.7617 80.1016 14.3477C80.1484 13.9336 80.1719 13.5391 80.1719 13.1641Z"/>
<path d="M86.0195 14.1719C86.0195 13.5547 86.0703 12.9141 86.1719 12.25C86.2812 11.5859 86.4336 10.9219 86.6289 10.2578C86.832 9.59375 87.0742 8.9375 87.3555 8.28906C87.6367 7.64062 87.9531 7.01953 88.3047 6.42578H91.1992C91.0039 7.01172 90.8281 7.625 90.6719 8.26562C90.5234 8.89844 90.3945 9.53516 90.2852 10.1758C90.1836 10.8086 90.1016 11.4297 90.0391 12.0391C89.9844 12.6484 89.957 13.2148 89.957 13.7383C89.957 14.043 89.9688 14.3711 89.9922 14.7227C90.0234 15.0664 90.0742 15.4141 90.1445 15.7656C90.2148 16.1094 90.3125 16.4414 90.4375 16.7617C90.5703 17.082 90.7383 17.3672 90.9414 17.6172C91.1445 17.8594 91.3906 18.0547 91.6797 18.2031C91.9766 18.3438 92.3242 18.4141 92.7227 18.4141C93.1133 18.4141 93.4609 18.3281 93.7656 18.1562C94.0781 17.9766 94.3516 17.7461 94.5859 17.4648C94.8203 17.1758 95.0195 16.8477 95.1836 16.4805C95.3477 16.1133 95.4805 15.7383 95.582 15.3555C95.6914 14.9648 95.7695 14.5859 95.8164 14.2188C95.8711 13.8438 95.8984 13.5078 95.8984 13.2109V6.42578H99.8594V19.9609H98.3359L96.5195 16.8086C96.293 17.332 96.0156 17.8086 95.6875 18.2383C95.3672 18.6602 95 19.0234 94.5859 19.3281C94.1719 19.6328 93.7109 19.8672 93.2031 20.0312C92.7031 20.1953 92.1602 20.2773 91.5742 20.2773C90.6367 20.2773 89.8203 20.125 89.125 19.8203C88.4297 19.5156 87.8516 19.0938 87.3906 18.5547C86.9297 18.0156 86.5859 17.375 86.3594 16.6328C86.1328 15.8828 86.0195 15.0625 86.0195 14.1719Z"/>
<path d="M114.672 7.62109L112.445 11.3125C112.352 11 112.23 10.6484 112.082 10.2578C111.934 9.86719 111.75 9.50391 111.531 9.16797C111.312 8.82422 111.051 8.53906 110.746 8.3125C110.441 8.07812 110.09 7.96094 109.691 7.96094C109.324 7.96094 109.004 8.05469 108.73 8.24219C108.465 8.42969 108.238 8.67578 108.051 8.98047C107.863 9.27734 107.707 9.61719 107.582 10C107.465 10.375 107.371 10.7578 107.301 11.1484C107.238 11.5312 107.195 11.9023 107.172 12.2617C107.148 12.6133 107.137 12.918 107.137 13.1758V19.9609H103.164V6.42578H104.688L106.293 9.57812C106.512 9.07031 106.762 8.60547 107.043 8.18359C107.324 7.75391 107.648 7.38672 108.016 7.08203C108.383 6.76953 108.797 6.52734 109.258 6.35547C109.727 6.18359 110.254 6.09766 110.84 6.09766C111.145 6.09766 111.484 6.125 111.859 6.17969C112.234 6.22656 112.602 6.3125 112.961 6.4375C113.32 6.55469 113.652 6.71094 113.957 6.90625C114.262 7.10156 114.5 7.33984 114.672 7.62109Z"/>
<path d="M125.336 19.9609H121.082L114.777 3.08594H119.523L124.199 16.668L128.43 3.08594H131.312L125.336 19.9609Z"/>
<path d="M137.254 3.15625C137.254 3.45312 137.195 3.73438 137.078 4C136.969 4.26562 136.816 4.49609 136.621 4.69141C136.426 4.88672 136.195 5.04297 135.93 5.16016C135.664 5.26953 135.383 5.32422 135.086 5.32422C134.789 5.32422 134.508 5.26953 134.242 5.16016C133.984 5.04297 133.758 4.88672 133.562 4.69141C133.367 4.49609 133.211 4.26562 133.094 4C132.984 3.73438 132.93 3.45312 132.93 3.15625C132.93 2.85938 132.984 2.58203 133.094 2.32422C133.211 2.05859 133.367 1.82812 133.562 1.63281C133.758 1.4375 133.984 1.28516 134.242 1.17578C134.508 1.05859 134.789 1 135.086 1C135.383 1 135.664 1.05859 135.93 1.17578C136.195 1.28516 136.426 1.4375 136.621 1.63281C136.816 1.82812 136.969 2.05859 137.078 2.32422C137.195 2.58203 137.254 2.85938 137.254 3.15625ZM137.078 19.9609H133.105V6.4375H137.078V19.9609Z"/>
<path d="M154.797 13.2109C154.797 14.1953 154.648 15.1172 154.352 15.9766C154.055 16.8359 153.625 17.5859 153.062 18.2266C152.5 18.8594 151.812 19.3594 151 19.7266C150.188 20.0938 149.266 20.2773 148.234 20.2773C147.711 20.2773 147.211 20.1992 146.734 20.043C146.266 19.8867 145.832 19.668 145.434 19.3867C145.043 19.0977 144.695 18.7539 144.391 18.3555C144.094 17.957 143.859 17.5117 143.688 17.0195L141.93 19.9609H140.406V1.44531H144.367V8.04297C144.836 7.39453 145.398 6.91797 146.055 6.61328C146.719 6.30859 147.445 6.15625 148.234 6.15625C149.266 6.15625 150.188 6.33984 151 6.70703C151.812 7.07422 152.5 7.57422 153.062 8.20703C153.625 8.83984 154.055 9.58594 154.352 10.4453C154.648 11.3047 154.797 12.2266 154.797 13.2109ZM150.777 13.2109C150.777 12.8672 150.758 12.5039 150.719 12.1211C150.688 11.7305 150.629 11.3438 150.543 10.9609C150.457 10.5781 150.336 10.2109 150.18 9.85938C150.031 9.50781 149.84 9.19922 149.605 8.93359C149.371 8.66016 149.09 8.44531 148.762 8.28906C148.434 8.125 148.047 8.04297 147.602 8.04297C147.195 8.04297 146.832 8.12891 146.512 8.30078C146.199 8.46484 145.922 8.6875 145.68 8.96875C145.445 9.25 145.246 9.57031 145.082 9.92969C144.918 10.2891 144.785 10.6602 144.684 11.043C144.582 11.4258 144.508 11.8047 144.461 12.1797C144.414 12.5547 144.391 12.8984 144.391 13.2109C144.391 13.5625 144.406 13.9336 144.438 14.3242C144.477 14.7148 144.539 15.1055 144.625 15.4961C144.711 15.8789 144.828 16.2461 144.977 16.5977C145.133 16.9414 145.328 17.25 145.562 17.5234C145.805 17.7891 146.09 18 146.418 18.1562C146.754 18.3125 147.148 18.3906 147.602 18.3906C148.039 18.3906 148.422 18.3125 148.75 18.1562C149.086 17.9922 149.371 17.7773 149.605 17.5117C149.84 17.2383 150.031 16.9258 150.18 16.5742C150.336 16.2148 150.457 15.8438 150.543 15.4609C150.629 15.0781 150.688 14.6953 150.719 14.3125C150.758 13.9219 150.777 13.5547 150.777 13.2109Z"/>
<path d="M160.609 13.5391C161.094 13.6484 161.578 13.7344 162.062 13.7969C162.547 13.8594 163.035 13.8906 163.527 13.8906C164.043 13.8906 164.52 13.8438 164.957 13.75C165.402 13.6484 165.785 13.4844 166.105 13.2578C166.434 13.0234 166.691 12.7148 166.879 12.332C167.066 11.9492 167.16 11.4727 167.16 10.9023C167.16 10.4414 167.098 10.0195 166.973 9.63672C166.848 9.25391 166.66 8.92578 166.41 8.65234C166.168 8.37891 165.867 8.16797 165.508 8.01953C165.148 7.86328 164.73 7.78516 164.254 7.78516C163.809 7.78516 163.406 7.86719 163.047 8.03125C162.695 8.19531 162.383 8.41797 162.109 8.69922C161.844 8.97266 161.613 9.29297 161.418 9.66016C161.23 10.0273 161.074 10.4102 160.949 10.8086C160.824 11.207 160.734 11.6094 160.68 12.0156C160.625 12.4219 160.598 12.8047 160.598 13.1641C160.598 13.2266 160.598 13.2891 160.598 13.3516C160.598 13.4141 160.602 13.4766 160.609 13.5391ZM170.371 10.8672C170.371 11.4219 170.281 11.918 170.102 12.3555C169.922 12.7852 169.676 13.1641 169.363 13.4922C169.059 13.8203 168.703 14.0977 168.297 14.3242C167.891 14.5508 167.457 14.7383 166.996 14.8867C166.535 15.0273 166.059 15.1289 165.566 15.1914C165.082 15.2539 164.609 15.2852 164.148 15.2852C163.562 15.2852 162.984 15.2461 162.414 15.168C161.844 15.082 161.281 14.9492 160.727 14.7695C160.812 15.2852 160.949 15.7773 161.137 16.2461C161.324 16.707 161.574 17.1133 161.887 17.4648C162.199 17.8086 162.582 18.082 163.035 18.2852C163.496 18.4883 164.039 18.5898 164.664 18.5898C165.078 18.5898 165.473 18.5273 165.848 18.4023C166.223 18.2773 166.566 18.1016 166.879 17.875C167.191 17.6484 167.465 17.3789 167.699 17.0664C167.941 16.7539 168.137 16.4062 168.285 16.0234L169.996 16.6562C169.738 17.2734 169.383 17.8086 168.93 18.2617C168.484 18.707 167.977 19.0781 167.406 19.375C166.844 19.6641 166.242 19.8789 165.602 20.0195C164.969 20.1602 164.34 20.2305 163.715 20.2305C162.684 20.2305 161.73 20.0586 160.855 19.7148C159.98 19.3633 159.227 18.875 158.594 18.25C157.961 17.625 157.465 16.8789 157.105 16.0117C156.746 15.1445 156.566 14.1953 156.566 13.1641C156.566 12.1328 156.746 11.1836 157.105 10.3164C157.465 9.44922 157.961 8.70312 158.594 8.07812C159.227 7.45312 159.98 6.96875 160.855 6.625C161.73 6.27344 162.684 6.09766 163.715 6.09766C164.215 6.09766 164.727 6.13281 165.25 6.20312C165.773 6.27344 166.281 6.38672 166.773 6.54297C167.266 6.69141 167.73 6.88672 168.168 7.12891C168.605 7.37109 168.984 7.67188 169.305 8.03125C169.633 8.38281 169.891 8.79297 170.078 9.26172C170.273 9.73047 170.371 10.2656 170.371 10.8672Z"/>
</mask>
<path d="M5.65234 19.9609H1V3.08594H13.1172V5.24219H5.65234V10.457H11.418V12.6016H5.65234V19.9609Z" fill="#151515"/>
<path d="M19.2695 3.15625C19.2695 3.45312 19.2109 3.73438 19.0938 4C18.9844 4.26562 18.832 4.49609 18.6367 4.69141C18.4414 4.88672 18.2109 5.04297 17.9453 5.16016C17.6797 5.26953 17.3984 5.32422 17.1016 5.32422C16.8047 5.32422 16.5234 5.26953 16.2578 5.16016C16 5.04297 15.7734 4.88672 15.5781 4.69141C15.3828 4.49609 15.2266 4.26562 15.1094 4C15 3.73438 14.9453 3.45312 14.9453 3.15625C14.9453 2.85938 15 2.58203 15.1094 2.32422C15.2266 2.05859 15.3828 1.82812 15.5781 1.63281C15.7734 1.4375 16 1.28516 16.2578 1.17578C16.5234 1.05859 16.8047 1 17.1016 1C17.3984 1 17.6797 1.05859 17.9453 1.17578C18.2109 1.28516 18.4414 1.4375 18.6367 1.63281C18.832 1.82812 18.9844 2.05859 19.0938 2.32422C19.2109 2.58203 19.2695 2.85938 19.2695 3.15625ZM19.0938 19.9609H15.1211V6.4375H19.0938V19.9609Z" fill="#151515"/>
<path d="M36.2617 12.2031C36.2617 13.1172 36.1484 14.0703 35.9219 15.0625C35.7031 16.0547 35.3945 17.0273 34.9961 17.9805C34.5977 18.9336 34.1211 19.8281 33.5664 20.6641C33.0117 21.5078 32.4023 22.2344 31.7383 22.8438L30.25 22.0352C30.4609 21.6445 30.6602 21.207 30.8477 20.7227C31.0352 20.2383 31.2031 19.7266 31.3516 19.1875C31.5078 18.6406 31.6445 18.0781 31.7617 17.5C31.8867 16.9219 31.9883 16.3516 32.0664 15.7891C32.1523 15.2188 32.2148 14.668 32.2539 14.1367C32.3008 13.5977 32.3242 13.0977 32.3242 12.6367C32.3242 12.332 32.3125 12.0078 32.2891 11.6641C32.2656 11.3125 32.2148 10.9648 32.1367 10.6211C32.0664 10.2695 31.9688 9.93359 31.8438 9.61328C31.7188 9.29297 31.5508 9.01172 31.3398 8.76953C31.1367 8.52734 30.8867 8.33203 30.5898 8.18359C30.3008 8.03516 29.957 7.96094 29.5586 7.96094C29.168 7.96094 28.8203 8.05078 28.5156 8.23047C28.2109 8.40234 27.9414 8.63281 27.707 8.92188C27.4727 9.20312 27.2695 9.52734 27.0977 9.89453C26.9336 10.2617 26.7969 10.6406 26.6875 11.0312C26.5859 11.4141 26.5117 11.793 26.4648 12.168C26.418 12.543 26.3945 12.8789 26.3945 13.1758V19.9609H22.4219V6.42578H23.9453L25.7617 9.57812C25.9805 9.05469 26.2539 8.57812 26.582 8.14844C26.9102 7.71875 27.2812 7.35156 27.6953 7.04688C28.1094 6.74219 28.5664 6.50781 29.0664 6.34375C29.5742 6.17969 30.1211 6.09766 30.707 6.09766C31.6445 6.09766 32.4609 6.25 33.1562 6.55469C33.8516 6.85938 34.4297 7.28516 34.8906 7.83203C35.3516 8.37109 35.6953 9.01562 35.9219 9.76562C36.1484 10.5078 36.2617 11.3203 36.2617 12.2031Z" fill="#151515"/>
<path d="M52.5156 19.9609H50.9922L49.2344 17.0195C49.0625 17.5117 48.8242 17.957 48.5195 18.3555C48.2227 18.7539 47.875 19.0977 47.4766 19.3867C47.0859 19.668 46.6523 19.8867 46.1758 20.043C45.707 20.1992 45.2109 20.2773 44.6875 20.2773C43.6562 20.2773 42.7344 20.0938 41.9219 19.7266C41.1094 19.3594 40.4219 18.8594 39.8594 18.2266C39.2969 17.5859 38.8672 16.8359 38.5703 15.9766C38.2734 15.1172 38.125 14.1953 38.125 13.2109C38.125 12.2266 38.2734 11.3047 38.5703 10.4453C38.8672 9.58594 39.2969 8.83984 39.8594 8.20703C40.4219 7.57422 41.1094 7.07422 41.9219 6.70703C42.7344 6.33984 43.6562 6.15625 44.6875 6.15625C45.4766 6.15625 46.1992 6.30859 46.8555 6.61328C47.5195 6.91797 48.0859 7.39453 48.5547 8.04297V1.44531H52.5156V19.9609ZM48.5312 13.2109C48.5312 12.8984 48.5078 12.5547 48.4609 12.1797C48.4141 11.8047 48.3398 11.4258 48.2383 11.043C48.1367 10.6602 48.0039 10.2891 47.8398 9.92969C47.6758 9.57031 47.4727 9.25 47.2305 8.96875C46.9961 8.6875 46.7188 8.46484 46.3984 8.30078C46.0859 8.12891 45.7266 8.04297 45.3203 8.04297C44.875 8.04297 44.4883 8.125 44.1602 8.28906C43.832 8.44531 43.5508 8.66016 43.3164 8.93359C43.082 9.19922 42.8867 9.50781 42.7305 9.85938C42.582 10.2109 42.4648 10.5781 42.3789 10.9609C42.293 11.3438 42.2305 11.7305 42.1914 12.1211C42.1602 12.5039 42.1445 12.8672 42.1445 13.2109C42.1445 13.5547 42.1602 13.9219 42.1914 14.3125C42.2305 14.6953 42.293 15.0781 42.3789 15.4609C42.4648 15.8438 42.582 16.2148 42.7305 16.5742C42.8867 16.9258 43.082 17.2383 43.3164 17.5117C43.5508 17.7773 43.832 17.9922 44.1602 18.1562C44.4883 18.3125 44.875 18.3906 45.3203 18.3906C45.7656 18.3906 46.1562 18.3125 46.4922 18.1562C46.8281 18 47.1133 17.7891 47.3477 17.5234C47.5898 17.25 47.7852 16.9414 47.9336 16.5977C48.0898 16.2461 48.2109 15.8789 48.2969 15.4961C48.3828 15.1055 48.4414 14.7148 48.4727 14.3242C48.5117 13.9336 48.5312 13.5625 48.5312 13.2109Z" fill="#151515"/>
<path d="M69.7773 3.08594L64.3164 12.8711V19.9609H59.6641V13.1289L54.1445 3.08594H58.8906L62.5586 11.5703L66.4961 3.08594H69.7773Z" fill="#151515"/>
<path d="M84.2031 13.1641C84.2031 13.8672 84.1094 14.5273 83.9219 15.1445C83.7344 15.7617 83.4727 16.332 83.1367 16.8555C82.8086 17.3789 82.4102 17.8516 81.9414 18.2734C81.4727 18.6875 80.957 19.0391 80.3945 19.3281C79.8398 19.6172 79.2422 19.8398 78.6016 19.9961C77.9688 20.1523 77.3164 20.2305 76.6445 20.2305C75.9727 20.2305 75.3203 20.1523 74.6875 19.9961C74.0547 19.8398 73.457 19.6172 72.8945 19.3281C72.3398 19.0391 71.8281 18.6875 71.3594 18.2734C70.8906 17.8516 70.4883 17.3789 70.1523 16.8555C69.8242 16.332 69.5664 15.7617 69.3789 15.1445C69.1914 14.5195 69.0977 13.8594 69.0977 13.1641C69.0977 12.4688 69.1914 11.8125 69.3789 11.1953C69.5664 10.5703 69.8242 9.99609 70.1523 9.47266C70.4883 8.94922 70.8906 8.48047 71.3594 8.06641C71.8281 7.64453 72.3398 7.28906 72.8945 7C73.457 6.71094 74.0547 6.48828 74.6875 6.33203C75.3203 6.17578 75.9727 6.09766 76.6445 6.09766C77.3164 6.09766 77.9688 6.17578 78.6016 6.33203C79.2422 6.48828 79.8398 6.71094 80.3945 7C80.957 7.28906 81.4727 7.64453 81.9414 8.06641C82.4102 8.48047 82.8086 8.94922 83.1367 9.47266C83.4727 9.99609 83.7344 10.5703 83.9219 11.1953C84.1094 11.8125 84.2031 12.4688 84.2031 13.1641ZM80.1719 13.1641C80.1719 12.7891 80.1484 12.3945 80.1016 11.9805C80.0625 11.5586 79.9922 11.1484 79.8906 10.75C79.7891 10.3438 79.6484 9.95703 79.4688 9.58984C79.2969 9.21484 79.082 8.89062 78.8242 8.61719C78.5664 8.33594 78.2578 8.11328 77.8984 7.94922C77.5391 7.77734 77.1211 7.69141 76.6445 7.69141C76.1914 7.69141 75.7891 7.77734 75.4375 7.94922C75.0859 8.12109 74.7773 8.35156 74.5117 8.64062C74.2539 8.92188 74.0352 9.25 73.8555 9.625C73.6836 10 73.543 10.3906 73.4336 10.7969C73.3242 11.1953 73.2461 11.6016 73.1992 12.0156C73.1523 12.4219 73.1289 12.8047 73.1289 13.1641C73.1289 13.5234 73.1523 13.9102 73.1992 14.3242C73.2461 14.7305 73.3242 15.1367 73.4336 15.543C73.543 15.9492 73.6836 16.3398 73.8555 16.7148C74.0352 17.082 74.2539 17.4102 74.5117 17.6992C74.7773 17.9805 75.0859 18.207 75.4375 18.3789C75.7891 18.5508 76.1914 18.6367 76.6445 18.6367C77.1133 18.6367 77.5273 18.5547 77.8867 18.3906C78.2461 18.2188 78.5547 17.9922 78.8125 17.7109C79.0781 17.4297 79.2969 17.1055 79.4688 16.7383C79.6406 16.3711 79.7773 15.9844 79.8789 15.5781C79.9883 15.1719 80.0625 14.7617 80.1016 14.3477C80.1484 13.9336 80.1719 13.5391 80.1719 13.1641Z" fill="#151515"/>
<path d="M86.0195 14.1719C86.0195 13.5547 86.0703 12.9141 86.1719 12.25C86.2812 11.5859 86.4336 10.9219 86.6289 10.2578C86.832 9.59375 87.0742 8.9375 87.3555 8.28906C87.6367 7.64062 87.9531 7.01953 88.3047 6.42578H91.1992C91.0039 7.01172 90.8281 7.625 90.6719 8.26562C90.5234 8.89844 90.3945 9.53516 90.2852 10.1758C90.1836 10.8086 90.1016 11.4297 90.0391 12.0391C89.9844 12.6484 89.957 13.2148 89.957 13.7383C89.957 14.043 89.9688 14.3711 89.9922 14.7227C90.0234 15.0664 90.0742 15.4141 90.1445 15.7656C90.2148 16.1094 90.3125 16.4414 90.4375 16.7617C90.5703 17.082 90.7383 17.3672 90.9414 17.6172C91.1445 17.8594 91.3906 18.0547 91.6797 18.2031C91.9766 18.3438 92.3242 18.4141 92.7227 18.4141C93.1133 18.4141 93.4609 18.3281 93.7656 18.1562C94.0781 17.9766 94.3516 17.7461 94.5859 17.4648C94.8203 17.1758 95.0195 16.8477 95.1836 16.4805C95.3477 16.1133 95.4805 15.7383 95.582 15.3555C95.6914 14.9648 95.7695 14.5859 95.8164 14.2188C95.8711 13.8438 95.8984 13.5078 95.8984 13.2109V6.42578H99.8594V19.9609H98.3359L96.5195 16.8086C96.293 17.332 96.0156 17.8086 95.6875 18.2383C95.3672 18.6602 95 19.0234 94.5859 19.3281C94.1719 19.6328 93.7109 19.8672 93.2031 20.0312C92.7031 20.1953 92.1602 20.2773 91.5742 20.2773C90.6367 20.2773 89.8203 20.125 89.125 19.8203C88.4297 19.5156 87.8516 19.0938 87.3906 18.5547C86.9297 18.0156 86.5859 17.375 86.3594 16.6328C86.1328 15.8828 86.0195 15.0625 86.0195 14.1719Z" fill="#151515"/>
<path d="M114.672 7.62109L112.445 11.3125C112.352 11 112.23 10.6484 112.082 10.2578C111.934 9.86719 111.75 9.50391 111.531 9.16797C111.312 8.82422 111.051 8.53906 110.746 8.3125C110.441 8.07812 110.09 7.96094 109.691 7.96094C109.324 7.96094 109.004 8.05469 108.73 8.24219C108.465 8.42969 108.238 8.67578 108.051 8.98047C107.863 9.27734 107.707 9.61719 107.582 10C107.465 10.375 107.371 10.7578 107.301 11.1484C107.238 11.5312 107.195 11.9023 107.172 12.2617C107.148 12.6133 107.137 12.918 107.137 13.1758V19.9609H103.164V6.42578H104.688L106.293 9.57812C106.512 9.07031 106.762 8.60547 107.043 8.18359C107.324 7.75391 107.648 7.38672 108.016 7.08203C108.383 6.76953 108.797 6.52734 109.258 6.35547C109.727 6.18359 110.254 6.09766 110.84 6.09766C111.145 6.09766 111.484 6.125 111.859 6.17969C112.234 6.22656 112.602 6.3125 112.961 6.4375C113.32 6.55469 113.652 6.71094 113.957 6.90625C114.262 7.10156 114.5 7.33984 114.672 7.62109Z" fill="#151515"/>
<path d="M125.336 19.9609H121.082L114.777 3.08594H119.523L124.199 16.668L128.43 3.08594H131.312L125.336 19.9609Z" fill="#151515"/>
<path d="M137.254 3.15625C137.254 3.45312 137.195 3.73438 137.078 4C136.969 4.26562 136.816 4.49609 136.621 4.69141C136.426 4.88672 136.195 5.04297 135.93 5.16016C135.664 5.26953 135.383 5.32422 135.086 5.32422C134.789 5.32422 134.508 5.26953 134.242 5.16016C133.984 5.04297 133.758 4.88672 133.562 4.69141C133.367 4.49609 133.211 4.26562 133.094 4C132.984 3.73438 132.93 3.45312 132.93 3.15625C132.93 2.85938 132.984 2.58203 133.094 2.32422C133.211 2.05859 133.367 1.82812 133.562 1.63281C133.758 1.4375 133.984 1.28516 134.242 1.17578C134.508 1.05859 134.789 1 135.086 1C135.383 1 135.664 1.05859 135.93 1.17578C136.195 1.28516 136.426 1.4375 136.621 1.63281C136.816 1.82812 136.969 2.05859 137.078 2.32422C137.195 2.58203 137.254 2.85938 137.254 3.15625ZM137.078 19.9609H133.105V6.4375H137.078V19.9609Z" fill="#151515"/>
<path d="M154.797 13.2109C154.797 14.1953 154.648 15.1172 154.352 15.9766C154.055 16.8359 153.625 17.5859 153.062 18.2266C152.5 18.8594 151.812 19.3594 151 19.7266C150.188 20.0938 149.266 20.2773 148.234 20.2773C147.711 20.2773 147.211 20.1992 146.734 20.043C146.266 19.8867 145.832 19.668 145.434 19.3867C145.043 19.0977 144.695 18.7539 144.391 18.3555C144.094 17.957 143.859 17.5117 143.688 17.0195L141.93 19.9609H140.406V1.44531H144.367V8.04297C144.836 7.39453 145.398 6.91797 146.055 6.61328C146.719 6.30859 147.445 6.15625 148.234 6.15625C149.266 6.15625 150.188 6.33984 151 6.70703C151.812 7.07422 152.5 7.57422 153.062 8.20703C153.625 8.83984 154.055 9.58594 154.352 10.4453C154.648 11.3047 154.797 12.2266 154.797 13.2109ZM150.777 13.2109C150.777 12.8672 150.758 12.5039 150.719 12.1211C150.688 11.7305 150.629 11.3438 150.543 10.9609C150.457 10.5781 150.336 10.2109 150.18 9.85938C150.031 9.50781 149.84 9.19922 149.605 8.93359C149.371 8.66016 149.09 8.44531 148.762 8.28906C148.434 8.125 148.047 8.04297 147.602 8.04297C147.195 8.04297 146.832 8.12891 146.512 8.30078C146.199 8.46484 145.922 8.6875 145.68 8.96875C145.445 9.25 145.246 9.57031 145.082 9.92969C144.918 10.2891 144.785 10.6602 144.684 11.043C144.582 11.4258 144.508 11.8047 144.461 12.1797C144.414 12.5547 144.391 12.8984 144.391 13.2109C144.391 13.5625 144.406 13.9336 144.438 14.3242C144.477 14.7148 144.539 15.1055 144.625 15.4961C144.711 15.8789 144.828 16.2461 144.977 16.5977C145.133 16.9414 145.328 17.25 145.562 17.5234C145.805 17.7891 146.09 18 146.418 18.1562C146.754 18.3125 147.148 18.3906 147.602 18.3906C148.039 18.3906 148.422 18.3125 148.75 18.1562C149.086 17.9922 149.371 17.7773 149.605 17.5117C149.84 17.2383 150.031 16.9258 150.18 16.5742C150.336 16.2148 150.457 15.8438 150.543 15.4609C150.629 15.0781 150.688 14.6953 150.719 14.3125C150.758 13.9219 150.777 13.5547 150.777 13.2109Z" fill="#151515"/>
<path d="M160.609 13.5391C161.094 13.6484 161.578 13.7344 162.062 13.7969C162.547 13.8594 163.035 13.8906 163.527 13.8906C164.043 13.8906 164.52 13.8438 164.957 13.75C165.402 13.6484 165.785 13.4844 166.105 13.2578C166.434 13.0234 166.691 12.7148 166.879 12.332C167.066 11.9492 167.16 11.4727 167.16 10.9023C167.16 10.4414 167.098 10.0195 166.973 9.63672C166.848 9.25391 166.66 8.92578 166.41 8.65234C166.168 8.37891 165.867 8.16797 165.508 8.01953C165.148 7.86328 164.73 7.78516 164.254 7.78516C163.809 7.78516 163.406 7.86719 163.047 8.03125C162.695 8.19531 162.383 8.41797 162.109 8.69922C161.844 8.97266 161.613 9.29297 161.418 9.66016C161.23 10.0273 161.074 10.4102 160.949 10.8086C160.824 11.207 160.734 11.6094 160.68 12.0156C160.625 12.4219 160.598 12.8047 160.598 13.1641C160.598 13.2266 160.598 13.2891 160.598 13.3516C160.598 13.4141 160.602 13.4766 160.609 13.5391ZM170.371 10.8672C170.371 11.4219 170.281 11.918 170.102 12.3555C169.922 12.7852 169.676 13.1641 169.363 13.4922C169.059 13.8203 168.703 14.0977 168.297 14.3242C167.891 14.5508 167.457 14.7383 166.996 14.8867C166.535 15.0273 166.059 15.1289 165.566 15.1914C165.082 15.2539 164.609 15.2852 164.148 15.2852C163.562 15.2852 162.984 15.2461 162.414 15.168C161.844 15.082 161.281 14.9492 160.727 14.7695C160.812 15.2852 160.949 15.7773 161.137 16.2461C161.324 16.707 161.574 17.1133 161.887 17.4648C162.199 17.8086 162.582 18.082 163.035 18.2852C163.496 18.4883 164.039 18.5898 164.664 18.5898C165.078 18.5898 165.473 18.5273 165.848 18.4023C166.223 18.2773 166.566 18.1016 166.879 17.875C167.191 17.6484 167.465 17.3789 167.699 17.0664C167.941 16.7539 168.137 16.4062 168.285 16.0234L169.996 16.6562C169.738 17.2734 169.383 17.8086 168.93 18.2617C168.484 18.707 167.977 19.0781 167.406 19.375C166.844 19.6641 166.242 19.8789 165.602 20.0195C164.969 20.1602 164.34 20.2305 163.715 20.2305C162.684 20.2305 161.73 20.0586 160.855 19.7148C159.98 19.3633 159.227 18.875 158.594 18.25C157.961 17.625 157.465 16.8789 157.105 16.0117C156.746 15.1445 156.566 14.1953 156.566 13.1641C156.566 12.1328 156.746 11.1836 157.105 10.3164C157.465 9.44922 157.961 8.70312 158.594 8.07812C159.227 7.45312 159.98 6.96875 160.855 6.625C161.73 6.27344 162.684 6.09766 163.715 6.09766C164.215 6.09766 164.727 6.13281 165.25 6.20312C165.773 6.27344 166.281 6.38672 166.773 6.54297C167.266 6.69141 167.73 6.88672 168.168 7.12891C168.605 7.37109 168.984 7.67188 169.305 8.03125C169.633 8.38281 169.891 8.79297 170.078 9.26172C170.273 9.73047 170.371 10.2656 170.371 10.8672Z" fill="#151515"/>
<path d="M5.65234 19.9609H1V3.08594H13.1172V5.24219H5.65234V10.457H11.418V12.6016H5.65234V19.9609Z" stroke="black" stroke-opacity="0.01" stroke-width="2" mask="url(#path-1-outside-1_2_6900)"/>
<path d="M19.2695 3.15625C19.2695 3.45312 19.2109 3.73438 19.0938 4C18.9844 4.26562 18.832 4.49609 18.6367 4.69141C18.4414 4.88672 18.2109 5.04297 17.9453 5.16016C17.6797 5.26953 17.3984 5.32422 17.1016 5.32422C16.8047 5.32422 16.5234 5.26953 16.2578 5.16016C16 5.04297 15.7734 4.88672 15.5781 4.69141C15.3828 4.49609 15.2266 4.26562 15.1094 4C15 3.73438 14.9453 3.45312 14.9453 3.15625C14.9453 2.85938 15 2.58203 15.1094 2.32422C15.2266 2.05859 15.3828 1.82812 15.5781 1.63281C15.7734 1.4375 16 1.28516 16.2578 1.17578C16.5234 1.05859 16.8047 1 17.1016 1C17.3984 1 17.6797 1.05859 17.9453 1.17578C18.2109 1.28516 18.4414 1.4375 18.6367 1.63281C18.832 1.82812 18.9844 2.05859 19.0938 2.32422C19.2109 2.58203 19.2695 2.85938 19.2695 3.15625ZM19.0938 19.9609H15.1211V6.4375H19.0938V19.9609Z" stroke="black" stroke-opacity="0.01" stroke-width="2" mask="url(#path-1-outside-1_2_6900)"/>
<path d="M36.2617 12.2031C36.2617 13.1172 36.1484 14.0703 35.9219 15.0625C35.7031 16.0547 35.3945 17.0273 34.9961 17.9805C34.5977 18.9336 34.1211 19.8281 33.5664 20.6641C33.0117 21.5078 32.4023 22.2344 31.7383 22.8438L30.25 22.0352C30.4609 21.6445 30.6602 21.207 30.8477 20.7227C31.0352 20.2383 31.2031 19.7266 31.3516 19.1875C31.5078 18.6406 31.6445 18.0781 31.7617 17.5C31.8867 16.9219 31.9883 16.3516 32.0664 15.7891C32.1523 15.2188 32.2148 14.668 32.2539 14.1367C32.3008 13.5977 32.3242 13.0977 32.3242 12.6367C32.3242 12.332 32.3125 12.0078 32.2891 11.6641C32.2656 11.3125 32.2148 10.9648 32.1367 10.6211C32.0664 10.2695 31.9688 9.93359 31.8438 9.61328C31.7188 9.29297 31.5508 9.01172 31.3398 8.76953C31.1367 8.52734 30.8867 8.33203 30.5898 8.18359C30.3008 8.03516 29.957 7.96094 29.5586 7.96094C29.168 7.96094 28.8203 8.05078 28.5156 8.23047C28.2109 8.40234 27.9414 8.63281 27.707 8.92188C27.4727 9.20312 27.2695 9.52734 27.0977 9.89453C26.9336 10.2617 26.7969 10.6406 26.6875 11.0312C26.5859 11.4141 26.5117 11.793 26.4648 12.168C26.418 12.543 26.3945 12.8789 26.3945 13.1758V19.9609H22.4219V6.42578H23.9453L25.7617 9.57812C25.9805 9.05469 26.2539 8.57812 26.582 8.14844C26.9102 7.71875 27.2812 7.35156 27.6953 7.04688C28.1094 6.74219 28.5664 6.50781 29.0664 6.34375C29.5742 6.17969 30.1211 6.09766 30.707 6.09766C31.6445 6.09766 32.4609 6.25 33.1562 6.55469C33.8516 6.85938 34.4297 7.28516 34.8906 7.83203C35.3516 8.37109 35.6953 9.01562 35.9219 9.76562C36.1484 10.5078 36.2617 11.3203 36.2617 12.2031Z" stroke="black" stroke-opacity="0.01" stroke-width="2" mask="url(#path-1-outside-1_2_6900)"/>
<path d="M52.5156 19.9609H50.9922L49.2344 17.0195C49.0625 17.5117 48.8242 17.957 48.5195 18.3555C48.2227 18.7539 47.875 19.0977 47.4766 19.3867C47.0859 19.668 46.6523 19.8867 46.1758 20.043C45.707 20.1992 45.2109 20.2773 44.6875 20.2773C43.6562 20.2773 42.7344 20.0938 41.9219 19.7266C41.1094 19.3594 40.4219 18.8594 39.8594 18.2266C39.2969 17.5859 38.8672 16.8359 38.5703 15.9766C38.2734 15.1172 38.125 14.1953 38.125 13.2109C38.125 12.2266 38.2734 11.3047 38.5703 10.4453C38.8672 9.58594 39.2969 8.83984 39.8594 8.20703C40.4219 7.57422 41.1094 7.07422 41.9219 6.70703C42.7344 6.33984 43.6562 6.15625 44.6875 6.15625C45.4766 6.15625 46.1992 6.30859 46.8555 6.61328C47.5195 6.91797 48.0859 7.39453 48.5547 8.04297V1.44531H52.5156V19.9609ZM48.5312 13.2109C48.5312 12.8984 48.5078 12.5547 48.4609 12.1797C48.4141 11.8047 48.3398 11.4258 48.2383 11.043C48.1367 10.6602 48.0039 10.2891 47.8398 9.92969C47.6758 9.57031 47.4727 9.25 47.2305 8.96875C46.9961 8.6875 46.7188 8.46484 46.3984 8.30078C46.0859 8.12891 45.7266 8.04297 45.3203 8.04297C44.875 8.04297 44.4883 8.125 44.1602 8.28906C43.832 8.44531 43.5508 8.66016 43.3164 8.93359C43.082 9.19922 42.8867 9.50781 42.7305 9.85938C42.582 10.2109 42.4648 10.5781 42.3789 10.9609C42.293 11.3438 42.2305 11.7305 42.1914 12.1211C42.1602 12.5039 42.1445 12.8672 42.1445 13.2109C42.1445 13.5547 42.1602 13.9219 42.1914 14.3125C42.2305 14.6953 42.293 15.0781 42.3789 15.4609C42.4648 15.8438 42.582 16.2148 42.7305 16.5742C42.8867 16.9258 43.082 17.2383 43.3164 17.5117C43.5508 17.7773 43.832 17.9922 44.1602 18.1562C44.4883 18.3125 44.875 18.3906 45.3203 18.3906C45.7656 18.3906 46.1562 18.3125 46.4922 18.1562C46.8281 18 47.1133 17.7891 47.3477 17.5234C47.5898 17.25 47.7852 16.9414 47.9336 16.5977C48.0898 16.2461 48.2109 15.8789 48.2969 15.4961C48.3828 15.1055 48.4414 14.7148 48.4727 14.3242C48.5117 13.9336 48.5312 13.5625 48.5312 13.2109Z" stroke="black" stroke-opacity="0.01" stroke-width="2" mask="url(#path-1-outside-1_2_6900)"/>
<path d="M69.7773 3.08594L64.3164 12.8711V19.9609H59.6641V13.1289L54.1445 3.08594H58.8906L62.5586 11.5703L66.4961 3.08594H69.7773Z" stroke="black" stroke-opacity="0.01" stroke-width="2" mask="url(#path-1-outside-1_2_6900)"/>
<path d="M84.2031 13.1641C84.2031 13.8672 84.1094 14.5273 83.9219 15.1445C83.7344 15.7617 83.4727 16.332 83.1367 16.8555C82.8086 17.3789 82.4102 17.8516 81.9414 18.2734C81.4727 18.6875 80.957 19.0391 80.3945 19.3281C79.8398 19.6172 79.2422 19.8398 78.6016 19.9961C77.9688 20.1523 77.3164 20.2305 76.6445 20.2305C75.9727 20.2305 75.3203 20.1523 74.6875 19.9961C74.0547 19.8398 73.457 19.6172 72.8945 19.3281C72.3398 19.0391 71.8281 18.6875 71.3594 18.2734C70.8906 17.8516 70.4883 17.3789 70.1523 16.8555C69.8242 16.332 69.5664 15.7617 69.3789 15.1445C69.1914 14.5195 69.0977 13.8594 69.0977 13.1641C69.0977 12.4688 69.1914 11.8125 69.3789 11.1953C69.5664 10.5703 69.8242 9.99609 70.1523 9.47266C70.4883 8.94922 70.8906 8.48047 71.3594 8.06641C71.8281 7.64453 72.3398 7.28906 72.8945 7C73.457 6.71094 74.0547 6.48828 74.6875 6.33203C75.3203 6.17578 75.9727 6.09766 76.6445 6.09766C77.3164 6.09766 77.9688 6.17578 78.6016 6.33203C79.2422 6.48828 79.8398 6.71094 80.3945 7C80.957 7.28906 81.4727 7.64453 81.9414 8.06641C82.4102 8.48047 82.8086 8.94922 83.1367 9.47266C83.4727 9.99609 83.7344 10.5703 83.9219 11.1953C84.1094 11.8125 84.2031 12.4688 84.2031 13.1641ZM80.1719 13.1641C80.1719 12.7891 80.1484 12.3945 80.1016 11.9805C80.0625 11.5586 79.9922 11.1484 79.8906 10.75C79.7891 10.3438 79.6484 9.95703 79.4688 9.58984C79.2969 9.21484 79.082 8.89062 78.8242 8.61719C78.5664 8.33594 78.2578 8.11328 77.8984 7.94922C77.5391 7.77734 77.1211 7.69141 76.6445 7.69141C76.1914 7.69141 75.7891 7.77734 75.4375 7.94922C75.0859 8.12109 74.7773 8.35156 74.5117 8.64062C74.2539 8.92188 74.0352 9.25 73.8555 9.625C73.6836 10 73.543 10.3906 73.4336 10.7969C73.3242 11.1953 73.2461 11.6016 73.1992 12.0156C73.1523 12.4219 73.1289 12.8047 73.1289 13.1641C73.1289 13.5234 73.1523 13.9102 73.1992 14.3242C73.2461 14.7305 73.3242 15.1367 73.4336 15.543C73.543 15.9492 73.6836 16.3398 73.8555 16.7148C74.0352 17.082 74.2539 17.4102 74.5117 17.6992C74.7773 17.9805 75.0859 18.207 75.4375 18.3789C75.7891 18.5508 76.1914 18.6367 76.6445 18.6367C77.1133 18.6367 77.5273 18.5547 77.8867 18.3906C78.2461 18.2188 78.5547 17.9922 78.8125 17.7109C79.0781 17.4297 79.2969 17.1055 79.4688 16.7383C79.6406 16.3711 79.7773 15.9844 79.8789 15.5781C79.9883 15.1719 80.0625 14.7617 80.1016 14.3477C80.1484 13.9336 80.1719 13.5391 80.1719 13.1641Z" stroke="black" stroke-opacity="0.01" stroke-width="2" mask="url(#path-1-outside-1_2_6900)"/>
<path d="M86.0195 14.1719C86.0195 13.5547 86.0703 12.9141 86.1719 12.25C86.2812 11.5859 86.4336 10.9219 86.6289 10.2578C86.832 9.59375 87.0742 8.9375 87.3555 8.28906C87.6367 7.64062 87.9531 7.01953 88.3047 6.42578H91.1992C91.0039 7.01172 90.8281 7.625 90.6719 8.26562C90.5234 8.89844 90.3945 9.53516 90.2852 10.1758C90.1836 10.8086 90.1016 11.4297 90.0391 12.0391C89.9844 12.6484 89.957 13.2148 89.957 13.7383C89.957 14.043 89.9688 14.3711 89.9922 14.7227C90.0234 15.0664 90.0742 15.4141 90.1445 15.7656C90.2148 16.1094 90.3125 16.4414 90.4375 16.7617C90.5703 17.082 90.7383 17.3672 90.9414 17.6172C91.1445 17.8594 91.3906 18.0547 91.6797 18.2031C91.9766 18.3438 92.3242 18.4141 92.7227 18.4141C93.1133 18.4141 93.4609 18.3281 93.7656 18.1562C94.0781 17.9766 94.3516 17.7461 94.5859 17.4648C94.8203 17.1758 95.0195 16.8477 95.1836 16.4805C95.3477 16.1133 95.4805 15.7383 95.582 15.3555C95.6914 14.9648 95.7695 14.5859 95.8164 14.2188C95.8711 13.8438 95.8984 13.5078 95.8984 13.2109V6.42578H99.8594V19.9609H98.3359L96.5195 16.8086C96.293 17.332 96.0156 17.8086 95.6875 18.2383C95.3672 18.6602 95 19.0234 94.5859 19.3281C94.1719 19.6328 93.7109 19.8672 93.2031 20.0312C92.7031 20.1953 92.1602 20.2773 91.5742 20.2773C90.6367 20.2773 89.8203 20.125 89.125 19.8203C88.4297 19.5156 87.8516 19.0938 87.3906 18.5547C86.9297 18.0156 86.5859 17.375 86.3594 16.6328C86.1328 15.8828 86.0195 15.0625 86.0195 14.1719Z" stroke="black" stroke-opacity="0.01" stroke-width="2" mask="url(#path-1-outside-1_2_6900)"/>
<path d="M114.672 7.62109L112.445 11.3125C112.352 11 112.23 10.6484 112.082 10.2578C111.934 9.86719 111.75 9.50391 111.531 9.16797C111.312 8.82422 111.051 8.53906 110.746 8.3125C110.441 8.07812 110.09 7.96094 109.691 7.96094C109.324 7.96094 109.004 8.05469 108.73 8.24219C108.465 8.42969 108.238 8.67578 108.051 8.98047C107.863 9.27734 107.707 9.61719 107.582 10C107.465 10.375 107.371 10.7578 107.301 11.1484C107.238 11.5312 107.195 11.9023 107.172 12.2617C107.148 12.6133 107.137 12.918 107.137 13.1758V19.9609H103.164V6.42578H104.688L106.293 9.57812C106.512 9.07031 106.762 8.60547 107.043 8.18359C107.324 7.75391 107.648 7.38672 108.016 7.08203C108.383 6.76953 108.797 6.52734 109.258 6.35547C109.727 6.18359 110.254 6.09766 110.84 6.09766C111.145 6.09766 111.484 6.125 111.859 6.17969C112.234 6.22656 112.602 6.3125 112.961 6.4375C113.32 6.55469 113.652 6.71094 113.957 6.90625C114.262 7.10156 114.5 7.33984 114.672 7.62109Z" stroke="black" stroke-opacity="0.01" stroke-width="2" mask="url(#path-1-outside-1_2_6900)"/>
<path d="M125.336 19.9609H121.082L114.777 3.08594H119.523L124.199 16.668L128.43 3.08594H131.312L125.336 19.9609Z" stroke="black" stroke-opacity="0.01" stroke-width="2" mask="url(#path-1-outside-1_2_6900)"/>
<path d="M137.254 3.15625C137.254 3.45312 137.195 3.73438 137.078 4C136.969 4.26562 136.816 4.49609 136.621 4.69141C136.426 4.88672 136.195 5.04297 135.93 5.16016C135.664 5.26953 135.383 5.32422 135.086 5.32422C134.789 5.32422 134.508 5.26953 134.242 5.16016C133.984 5.04297 133.758 4.88672 133.562 4.69141C133.367 4.49609 133.211 4.26562 133.094 4C132.984 3.73438 132.93 3.45312 132.93 3.15625C132.93 2.85938 132.984 2.58203 133.094 2.32422C133.211 2.05859 133.367 1.82812 133.562 1.63281C133.758 1.4375 133.984 1.28516 134.242 1.17578C134.508 1.05859 134.789 1 135.086 1C135.383 1 135.664 1.05859 135.93 1.17578C136.195 1.28516 136.426 1.4375 136.621 1.63281C136.816 1.82812 136.969 2.05859 137.078 2.32422C137.195 2.58203 137.254 2.85938 137.254 3.15625ZM137.078 19.9609H133.105V6.4375H137.078V19.9609Z" stroke="black" stroke-opacity="0.01" stroke-width="2" mask="url(#path-1-outside-1_2_6900)"/>
<path d="M154.797 13.2109C154.797 14.1953 154.648 15.1172 154.352 15.9766C154.055 16.8359 153.625 17.5859 153.062 18.2266C152.5 18.8594 151.812 19.3594 151 19.7266C150.188 20.0938 149.266 20.2773 148.234 20.2773C147.711 20.2773 147.211 20.1992 146.734 20.043C146.266 19.8867 145.832 19.668 145.434 19.3867C145.043 19.0977 144.695 18.7539 144.391 18.3555C144.094 17.957 143.859 17.5117 143.688 17.0195L141.93 19.9609H140.406V1.44531H144.367V8.04297C144.836 7.39453 145.398 6.91797 146.055 6.61328C146.719 6.30859 147.445 6.15625 148.234 6.15625C149.266 6.15625 150.188 6.33984 151 6.70703C151.812 7.07422 152.5 7.57422 153.062 8.20703C153.625 8.83984 154.055 9.58594 154.352 10.4453C154.648 11.3047 154.797 12.2266 154.797 13.2109ZM150.777 13.2109C150.777 12.8672 150.758 12.5039 150.719 12.1211C150.688 11.7305 150.629 11.3438 150.543 10.9609C150.457 10.5781 150.336 10.2109 150.18 9.85938C150.031 9.50781 149.84 9.19922 149.605 8.93359C149.371 8.66016 149.09 8.44531 148.762 8.28906C148.434 8.125 148.047 8.04297 147.602 8.04297C147.195 8.04297 146.832 8.12891 146.512 8.30078C146.199 8.46484 145.922 8.6875 145.68 8.96875C145.445 9.25 145.246 9.57031 145.082 9.92969C144.918 10.2891 144.785 10.6602 144.684 11.043C144.582 11.4258 144.508 11.8047 144.461 12.1797C144.414 12.5547 144.391 12.8984 144.391 13.2109C144.391 13.5625 144.406 13.9336 144.438 14.3242C144.477 14.7148 144.539 15.1055 144.625 15.4961C144.711 15.8789 144.828 16.2461 144.977 16.5977C145.133 16.9414 145.328 17.25 145.562 17.5234C145.805 17.7891 146.09 18 146.418 18.1562C146.754 18.3125 147.148 18.3906 147.602 18.3906C148.039 18.3906 148.422 18.3125 148.75 18.1562C149.086 17.9922 149.371 17.7773 149.605 17.5117C149.84 17.2383 150.031 16.9258 150.18 16.5742C150.336 16.2148 150.457 15.8438 150.543 15.4609C150.629 15.0781 150.688 14.6953 150.719 14.3125C150.758 13.9219 150.777 13.5547 150.777 13.2109Z" stroke="black" stroke-opacity="0.01" stroke-width="2" mask="url(#path-1-outside-1_2_6900)"/>
<path d="M160.609 13.5391C161.094 13.6484 161.578 13.7344 162.062 13.7969C162.547 13.8594 163.035 13.8906 163.527 13.8906C164.043 13.8906 164.52 13.8438 164.957 13.75C165.402 13.6484 165.785 13.4844 166.105 13.2578C166.434 13.0234 166.691 12.7148 166.879 12.332C167.066 11.9492 167.16 11.4727 167.16 10.9023C167.16 10.4414 167.098 10.0195 166.973 9.63672C166.848 9.25391 166.66 8.92578 166.41 8.65234C166.168 8.37891 165.867 8.16797 165.508 8.01953C165.148 7.86328 164.73 7.78516 164.254 7.78516C163.809 7.78516 163.406 7.86719 163.047 8.03125C162.695 8.19531 162.383 8.41797 162.109 8.69922C161.844 8.97266 161.613 9.29297 161.418 9.66016C161.23 10.0273 161.074 10.4102 160.949 10.8086C160.824 11.207 160.734 11.6094 160.68 12.0156C160.625 12.4219 160.598 12.8047 160.598 13.1641C160.598 13.2266 160.598 13.2891 160.598 13.3516C160.598 13.4141 160.602 13.4766 160.609 13.5391ZM170.371 10.8672C170.371 11.4219 170.281 11.918 170.102 12.3555C169.922 12.7852 169.676 13.1641 169.363 13.4922C169.059 13.8203 168.703 14.0977 168.297 14.3242C167.891 14.5508 167.457 14.7383 166.996 14.8867C166.535 15.0273 166.059 15.1289 165.566 15.1914C165.082 15.2539 164.609 15.2852 164.148 15.2852C163.562 15.2852 162.984 15.2461 162.414 15.168C161.844 15.082 161.281 14.9492 160.727 14.7695C160.812 15.2852 160.949 15.7773 161.137 16.2461C161.324 16.707 161.574 17.1133 161.887 17.4648C162.199 17.8086 162.582 18.082 163.035 18.2852C163.496 18.4883 164.039 18.5898 164.664 18.5898C165.078 18.5898 165.473 18.5273 165.848 18.4023C166.223 18.2773 166.566 18.1016 166.879 17.875C167.191 17.6484 167.465 17.3789 167.699 17.0664C167.941 16.7539 168.137 16.4062 168.285 16.0234L169.996 16.6562C169.738 17.2734 169.383 17.8086 168.93 18.2617C168.484 18.707 167.977 19.0781 167.406 19.375C166.844 19.6641 166.242 19.8789 165.602 20.0195C164.969 20.1602 164.34 20.2305 163.715 20.2305C162.684 20.2305 161.73 20.0586 160.855 19.7148C159.98 19.3633 159.227 18.875 158.594 18.25C157.961 17.625 157.465 16.8789 157.105 16.0117C156.746 15.1445 156.566 14.1953 156.566 13.1641C156.566 12.1328 156.746 11.1836 157.105 10.3164C157.465 9.44922 157.961 8.70312 158.594 8.07812C159.227 7.45312 159.98 6.96875 160.855 6.625C161.73 6.27344 162.684 6.09766 163.715 6.09766C164.215 6.09766 164.727 6.13281 165.25 6.20312C165.773 6.27344 166.281 6.38672 166.773 6.54297C167.266 6.69141 167.73 6.88672 168.168 7.12891C168.605 7.37109 168.984 7.67188 169.305 8.03125C169.633 8.38281 169.891 8.79297 170.078 9.26172C170.273 9.73047 170.371 10.2656 170.371 10.8672Z" stroke="black" stroke-opacity="0.01" stroke-width="2" mask="url(#path-1-outside-1_2_6900)"/>
</svg>
