<?xml version="1.0" standalone="no"?>
<!DOCTYPE svg PUBLIC "-//W3C//DTD SVG 20010904//EN"
 "http://www.w3.org/TR/2001/REC-SVG-20010904/DTD/svg10.dtd">
<svg version="1.0" xmlns="http://www.w3.org/2000/svg"
 width="2000.000000pt" height="2000.000000pt" viewBox="0 0 2000.000000 2000.000000"
 preserveAspectRatio="xMidYMid meet">
<metadata>
Created by potrace 1.14, written by Peter Selinger 2001-2017
</metadata>
<g transform="translate(0.000000,2000.000000) scale(0.100000,-0.100000)"
fill="#000000" stroke="none">
<path d="M7368 14497 c-130 -45 -225 -129 -284 -252 -69 -144 -63 -338 15
-465 116 -190 345 -283 581 -236 45 10 109 30 141 46 296 150 360 553 125 785
-112 110 -205 145 -391 145 -99 0 -132 -5 -187 -23z m290 -172 c73 -22 154
-99 181 -171 60 -160 -6 -343 -147 -407 -71 -32 -199 -30 -267 5 -95 50 -152
136 -162 248 -21 225 178 389 395 325z"/>
<path d="M2190 14030 l0 -480 110 0 110 0 0 175 0 175 225 0 225 0 0 90 0 90
-225 0 -225 0 0 125 0 125 253 2 252 3 3 88 3 87 -366 0 -365 0 0 -480z"/>
<path d="M3070 14030 l0 -480 110 0 110 0 0 480 0 480 -110 0 -110 0 0 -480z"/>
<path d="M3520 14030 l0 -480 110 0 110 0 2 290 3 289 235 -287 236 -287 97
-3 97 -3 0 481 0 480 -110 0 -110 0 -2 -290 -3 -291 -81 98 c-44 54 -151 185
-239 291 l-158 192 -94 0 -93 0 0 -480z"/>
<path d="M4640 14030 l0 -480 263 0 c286 0 342 8 445 58 68 33 150 106 190
170 84 131 86 361 6 498 -35 60 -121 137 -194 174 -102 51 -164 60 -452 60
l-258 0 0 -480z m582 262 c238 -117 200 -480 -57 -547 -38 -9 -104 -15 -182
-15 l-123 0 0 301 0 301 148 -4 c143 -3 149 -4 214 -36z"/>
<path d="M6158 14298 c71 -117 154 -256 185 -309 l57 -96 0 -171 0 -172 110 0
110 0 0 164 0 164 190 316 189 317 -110 -3 -111 -3 -126 -209 c-115 -191 -127
-207 -140 -190 -7 11 -66 106 -129 212 l-116 192 -118 0 -118 0 127 -212z"/>
<path d="M8250 14205 c0 -185 4 -325 11 -357 36 -168 154 -278 333 -309 120
-20 260 2 346 56 58 37 125 117 151 181 23 58 24 67 27 397 l3 337 -111 0
-110 0 0 -302 c0 -191 -4 -318 -11 -343 -26 -95 -93 -140 -204 -139 -98 0
-146 29 -191 114 -17 32 -19 65 -22 353 l-3 317 -110 0 -109 0 0 -305z"/>
<path d="M9340 14030 l0 -480 115 0 115 0 0 135 0 135 100 0 99 0 93 -135 93
-134 118 -1 c64 0 117 2 117 4 0 3 -43 67 -96 142 -53 76 -98 143 -100 149 -3
6 16 25 42 41 95 60 150 174 142 298 -6 94 -37 163 -99 221 -97 91 -164 105
-489 105 l-250 0 0 -480z m537 271 c96 -55 103 -206 13 -272 -34 -25 -114 -39
-226 -39 l-94 0 0 171 0 171 133 -4 c118 -3 137 -6 174 -27z"/>
<path d="M2112 13138 c4 -10 199 -14 925 -16 l920 -2 122 -214 c119 -210 122
-217 142 -323 23 -120 28 -138 33 -132 3 2 18 64 35 138 l31 134 -122 213
-122 214 -984 0 c-782 0 -983 -3 -980 -12z"/>
<path d="M4526 13135 c-5 -13 86 -15 792 -15 l798 0 104 -190 c58 -104 108
-189 113 -190 4 0 7 57 6 128 l0 127 -43 75 -44 75 -860 3 c-758 2 -861 0
-866 -13z"/>
<path d="M6470 13135 c0 -13 92 -15 783 -15 l783 0 42 -77 c23 -43 57 -105 76
-138 18 -33 51 -91 72 -130 l39 -70 5 -2050 5 -2050 73 -3 72 -3 -1 2063 0
2063 -118 210 -118 210 -857 3 c-757 2 -856 0 -856 -13z"/>
<path d="M8682 13138 c4 -10 226 -14 1129 -19 1100 -5 1126 -6 1217 -26 306
-70 507 -193 707 -433 85 -102 156 -213 274 -429 105 -194 140 -286 166 -435
20 -117 20 -382 0 -501 -28 -162 -92 -327 -172 -439 -28 -39 -33 -53 -25 -65
44 -61 131 -207 158 -264 l33 -69 5 39 c4 21 14 78 24 126 l19 88 -39 54 -39
54 41 60 c85 125 155 314 175 473 6 49 3 66 -24 135 -60 153 -81 284 -81 499
l0 145 -86 157 c-47 86 -110 193 -138 237 -186 285 -405 465 -674 555 -206 68
-110 64 -1455 67 -989 3 -1218 1 -1215 -9z"/>
<path d="M13412 13135 c-51 -7 -94 -14 -96 -16 -3 -2 458 -3 1024 -1 l1028 2
121 -210 121 -211 0 -784 0 -785 -75 0 -75 0 0 -344 0 -345 78 -123 77 -123 5
-795 5 -795 95 0 95 0 1 795 1 795 -84 134 -83 134 0 343 0 344 80 0 80 0 0
784 0 785 -122 215 -123 216 -1030 -1 c-765 -1 -1054 -4 -1123 -14z"/>
<path d="M16100 13135 c0 -13 81 -15 669 -15 l669 0 121 -212 121 -213 0 -649
0 -648 -71 -537 c-39 -295 -75 -577 -81 -628 l-11 -91 80 -124 c122 -186 159
-273 184 -422 16 -105 7 -301 -20 -391 -88 -299 -313 -518 -616 -600 l-90 -25
120 4 c306 11 562 166 714 430 86 150 117 288 108 482 -9 208 -49 319 -194
538 l-78 119 32 246 c33 254 38 294 98 745 l35 268 0 656 0 655 -121 214 -121
213 -774 0 c-681 0 -774 -2 -774 -15z"/>
<path d="M2290 12910 c0 -9 72 -247 280 -925 32 -104 102 -332 155 -505 53
-173 123 -400 155 -505 32 -104 108 -354 170 -555 62 -201 148 -482 192 -625
44 -143 101 -330 127 -415 l47 -155 641 -3 641 -2 26 77 c14 43 84 272 156
508 72 237 201 657 286 935 86 278 198 645 250 815 53 171 111 360 129 420
116 374 285 930 285 937 0 4 -282 7 -627 6 l-627 -3 -8 -35 c-4 -19 -43 -199
-88 -400 -44 -201 -128 -581 -186 -845 -58 -264 -106 -481 -108 -482 -1 -1
-27 111 -59 250 -31 139 -107 473 -168 742 -61 270 -125 553 -143 630 l-31
140 -748 3 c-493 1 -747 -1 -747 -8z"/>
<path d="M6540 11070 l0 -1850 645 0 645 0 -2 1848 -3 1847 -642 3 -643 2 0
-1850z"/>
<path d="M8750 11070 l0 -1851 1053 3 c1050 3 1052 3 1155 26 316 69 545 215
687 437 131 204 181 411 173 710 -6 184 -26 278 -89 413 -71 153 -171 269
-299 347 -33 20 -60 38 -60 40 0 1 22 17 49 34 219 141 354 493 321 839 -46
486 -343 779 -855 841 -60 7 -431 11 -1112 11 l-1023 0 0 -1850z m1746 663
c44 -25 59 -63 59 -150 0 -67 -4 -87 -21 -110 -34 -46 -69 -52 -301 -52 l-213
-1 0 158 c0 87 3 162 7 166 13 13 445 3 469 -11z m-11 -969 c55 -28 85 -88 85
-169 0 -79 -23 -123 -80 -152 -42 -22 -56 -23 -257 -23 l-213 0 0 186 0 186
213 -4 c190 -3 216 -5 252 -24z"/>
<path d="M13345 12913 c-280 -33 -468 -111 -624 -258 -218 -205 -310 -545
-245 -911 41 -234 146 -409 316 -526 l39 -27 -42 -22 c-157 -79 -287 -241
-355 -442 -38 -111 -54 -225 -54 -381 0 -523 233 -887 665 -1042 52 -18 138
-43 192 -56 97 -22 110 -22 1016 -25 l917 -4 -2 598 -3 598 -720 5 c-554 4
-725 8 -742 18 -93 53 -109 218 -29 298 52 52 77 54 731 54 l595 0 0 315 0
314 -634 3 c-624 3 -635 3 -663 24 -84 62 -84 216 0 278 28 21 38 21 743 24
l714 3 0 584 0 585 -892 -1 c-491 -1 -906 -4 -923 -6z"/>
<path d="M16112 12358 c3 -551 4 -567 31 -758 15 -107 49 -359 75 -560 l48
-365 407 -3 c224 -1 407 0 407 2 0 3 34 275 75 604 l75 599 0 521 0 522 -560
0 -561 0 3 -562z"/>
<path d="M6328 12590 c-7 -15 -190 -606 -503 -1630 -51 -168 -129 -422 -173
-565 -45 -143 -133 -431 -197 -640 -64 -209 -132 -429 -150 -490 -169 -542
-201 -651 -198 -657 2 -5 29 -8 58 -8 42 0 56 4 63 18 6 9 78 240 161 512 84
272 170 551 191 620 21 69 181 589 355 1155 174 567 336 1094 361 1172 l44
143 -2 192 c-2 106 -6 186 -10 178z"/>
<path d="M16590 10531 c-277 -39 -484 -219 -550 -477 -47 -183 -32 -341 46
-503 96 -198 278 -321 517 -351 281 -35 546 109 676 368 59 116 77 309 45 455
-53 237 -240 433 -469 491 -76 19 -194 27 -265 17z"/>
<path d="M12266 9758 c-2 -13 -11 -72 -21 -132 -71 -461 -361 -800 -803 -940
-80 -25 -249 -61 -327 -70 -22 -2 14 -3 80 -1 580 17 1025 329 1180 828 l26
82 -65 128 c-50 97 -66 122 -70 105z"/>
<path d="M13770 7932 c-19 -9 -40 -28 -47 -42 -10 -20 -12 -267 -10 -1172 l2
-1146 24 -26 c20 -21 34 -26 73 -26 27 0 58 5 70 11 49 26 48 -1 48 1200 0
1243 4 1171 -65 1203 -42 20 -52 20 -95 -2z"/>
<path d="M14095 7720 c-11 -4 -31 -20 -45 -35 l-25 -27 0 -921 c0 -871 1 -923
18 -948 40 -59 125 -63 171 -8 l26 31 0 922 c0 1013 4 948 -60 981 -32 17 -55
18 -85 5z"/>
<path d="M10921 7654 c-52 -37 -51 -18 -51 -938 0 -956 -3 -918 67 -951 47
-23 95 -13 127 26 l26 31 0 883 c0 664 -3 891 -12 910 -23 51 -109 72 -157 39z"/>
<path d="M15033 7606 c-66 -30 -64 11 -61 -890 l3 -814 24 -26 c52 -55 148
-40 177 29 12 30 14 151 12 840 l-3 805 -30 30 c-36 36 -79 45 -122 26z"/>
<path d="M13152 7588 c-20 -5 -40 -21 -52 -41 -19 -31 -20 -55 -20 -830 0
-887 -3 -844 67 -873 45 -19 83 -11 119 27 l29 30 0 814 0 815 -30 29 c-35 34
-67 42 -113 29z"/>
<path d="M14374 7506 l-34 -34 0 -732 0 -732 34 -34 c58 -58 141 -42 172 32
12 27 14 157 14 734 0 768 1 753 -59 784 -50 26 -88 21 -127 -18z"/>
<path d="M12819 7505 c-60 -33 -59 -16 -59 -785 0 -777 -2 -750 64 -785 45
-24 97 -14 130 26 l26 31 0 730 0 730 -34 34 c-38 38 -81 44 -127 19z"/>
<path d="M11883 7476 c-65 -29 -63 -2 -63 -772 l0 -696 34 -34 c27 -27 42 -34
74 -34 45 0 84 25 101 67 8 21 11 214 9 720 l-3 693 -30 30 c-36 36 -79 45
-122 26z"/>
<path d="M13437 7470 c-15 -12 -31 -38 -37 -58 -14 -51 -14 -1373 1 -1425 12
-45 57 -77 107 -77 25 0 43 9 68 34 l34 34 0 716 c0 493 -3 722 -11 739 -25
54 -114 75 -162 37z"/>
<path d="M11262 7409 c-20 -6 -40 -22 -52 -42 -19 -31 -20 -54 -20 -641 l0
-608 34 -34 c58 -58 141 -42 172 32 11 27 14 141 14 621 0 572 -1 589 -20 621
-16 26 -76 66 -92 61 -2 0 -18 -5 -36 -10z"/>
<path d="M15353 7406 c-17 -8 -40 -27 -50 -42 -17 -26 -18 -67 -21 -614 -2
-322 0 -605 3 -629 9 -59 50 -101 100 -101 47 0 88 22 103 55 15 33 17 1240 2
1279 -18 49 -85 74 -137 52z"/>
<path d="M15663 7406 c-65 -29 -63 -11 -63 -688 0 -473 3 -619 13 -638 7 -14
29 -34 49 -45 34 -18 40 -19 79 -5 30 11 47 25 61 50 17 33 18 66 16 652 l-3
618 -30 30 c-36 36 -79 45 -122 26z"/>
<path d="M10613 7380 c-17 -10 -37 -28 -42 -39 -16 -28 -15 -1214 0 -1244 28
-55 108 -75 158 -41 51 36 51 40 51 664 0 637 0 634 -59 664 -40 21 -69 20
-108 -4z"/>
<path d="M12205 7380 c-11 -4 -31 -20 -45 -35 l-25 -27 0 -606 c0 -568 1 -609
18 -633 40 -59 125 -63 171 -8 l26 31 0 607 c0 666 3 633 -60 666 -32 17 -55
18 -85 5z"/>
<path d="M14725 7280 c-11 -4 -31 -20 -45 -35 l-25 -27 -3 -471 c-2 -319 0
-484 8 -509 14 -49 52 -78 102 -78 32 0 47 7 74 34 l34 34 0 494 c0 547 3 525
-66 554 -37 16 -50 16 -79 4z"/>
<path d="M15963 7210 c-52 -32 -55 -53 -51 -500 3 -370 5 -407 21 -431 40 -59
125 -63 171 -8 l26 31 0 430 0 430 -34 34 c-40 40 -83 45 -133 14z"/>
<path d="M12514 7210 c-12 -5 -31 -22 -43 -38 -21 -30 -21 -38 -21 -451 0
-463 -1 -454 61 -487 36 -18 53 -18 94 2 64 30 65 37 65 484 0 355 -2 406 -17
437 -24 51 -86 75 -139 53z"/>
<path d="M10299 7004 c-51 -33 -54 -46 -57 -249 -4 -234 0 -270 40 -307 49
-46 128 -35 161 22 15 24 17 61 17 254 l0 226 -27 30 c-35 39 -95 49 -134 24z"/>
<path d="M11560 7004 c-49 -35 -49 -36 -50 -287 l0 -239 31 -29 c51 -47 141
-32 168 28 7 15 11 108 11 248 l0 225 -27 30 c-35 40 -96 50 -133 24z"/>
<path d="M16293 6955 c-55 -24 -63 -53 -63 -246 l0 -171 34 -34 c41 -41 97
-47 139 -13 41 31 49 78 45 251 -3 173 -8 186 -75 214 -39 17 -40 17 -80 -1z"/>
<path d="M16603 6954 c-53 -27 -63 -62 -63 -233 0 -171 10 -210 59 -235 50
-26 88 -21 127 18 l34 34 0 179 c0 195 -3 209 -60 238 -36 19 -57 19 -97 -1z"/>
<path d="M16893 6925 l-34 -34 3 -180 c3 -174 4 -180 27 -205 52 -55 148 -40
177 29 19 47 20 312 0 359 -18 44 -52 66 -99 66 -31 0 -46 -7 -74 -35z"/>
<path d="M17223 6880 c-39 -23 -53 -67 -53 -165 0 -84 20 -131 68 -159 29 -16
39 -17 71 -7 67 20 76 38 79 167 l4 114 -35 35 c-41 41 -84 46 -134 15z"/>
</g>
</svg>
